<svg xmlns="http://www.w3.org/2000/svg" xmlns:xlink="http://www.w3.org/1999/xlink" id="Livello_1" x="0px" y="0px" width="500px" height="500px" viewBox="0 0 500 500" style="enable-background:new 0 0 500 500;" xml:space="preserve">
<g>
	<path d="M61.5,395.4c-0.5-0.5-1-1-1.6-1.6c-4.3,0.5-8.5-0.3-12.4-2.3c-2.1-1.1-3.7-2.3-4.6-4.6c-0.5-1.3-1.5-2.4-2.5-3.9   c0-2.6,0-5.6,0-8.7c-0.5-0.4-1-0.8-1.7-1.4c-5.1,0-10.4,0-16.2,0c-0.7-1.5-1.5-3.2-2.1-4.6c0.7-2.8,1.9-5.4,1.8-8   c-0.5-9.6,1.4-19.1,1.2-28.7c-0.1-3.3-1.5-6.3-1.1-9.6c0.3-3.3,0.1-6.7,0.1-9.8c0.9-1,1.7-1.9,2.6-2.7c4,0.5,8.2-0.6,11.5,0.5   c0.9-0.3,1.7-0.6,2.7-1c-1.8-2-2.7-4-5.2-3.4c-5.3-3.7-10.4-7.8-13.2-13.5c-2.1-4.1-3.2-9.2-2.3-14.1c1.1-5.3,2.1-10.7,4.5-15.7   c0.7-1.4,1.6-2.7,2.6-4.2c-2-1.9-4.3-3.6-6.1-5.8c-1.8-2.2-3.4-4.6-4.6-7.1c-1.1-2.4-2.4-4.8-3.1-7.2c-0.8-2.7-1.7-5.5-1.4-8.5   c0.3-3,0.1-6,0.1-9.1c1.6,0,3.1,0,4.3,0c1.5-1.2,2.1-2.3,1.4-4c-1.4-3.5-2.5-7-2.9-10.9c-0.4-4.4-1.1-8.9-2.1-13.2   c-0.8-3.6-0.3-7.2-0.8-10.6c1.8-2,4.3-1.9,6.4-2.8c3.8-1.6,7.7-1.1,11.2-0.6c3.5,0.5,6.8,2.9,10,4.9c1.4,0.9,2.4,2.6,3.2,4.1   c0.7,1.2,1.3,2.5,3.4,2.4c0.1-0.1,0.6-0.7,1.4-1.6c-1.8-2.5-3.4-5.4-5.5-7.6c-2.7-2.8-4.9-5.9-6.8-9.2c1.6-3.7,1.6-7.5-0.3-11.1   c-1.7-3.1-2.4-6.4-2.7-9.9c-0.3-4.2,1.8-7.6,3.3-11.2c0.3-0.7,0.6-1.4,1-2.4c-1.8-1.3-3.5-2.6-5.3-3.9c0.2-0.2,0.5-0.4,0.7-0.7   c-1.5-0.5-2.9-1-4.7-1.6c0.3-4.9,1.4-9.5,5-13.4c0-0.9,0-1.9,0-3.1c-1.2-0.8-2.5-1.7-3.8-2.5c-0.9-2.5,1-4,1.8-5.8   c-0.4-1-0.7-2.1-1.4-2.9c-1.1-1.2-0.9-2.7-0.5-3.7c0.9-2.3,1.9-4.8,3.5-6.5c2.8-2.9,5.7-5.8,8.9-8.4c3.5-2.8,7.1-5.4,11-7.6   c3.5-1.9,7.1-3.8,11.3-3c0.7,0.1,1.4,0.7,2.1,0.9c0.6,0.2,1.3,0,2.2,0c0-2.5,0.2-4.9,0-7.2c-0.7-6.7,1.4-13,3.2-19.3   c0.7-2.4,0.4-5,1.8-7.3c0.7-1.2,0.9-2.6,1.5-4.3c1.4-1.9,4.2-3.1,4.9-6.1c2.8,0,5.4,0,8.2,0c0.2,0.1,0.4,0.4,0.7,0.6   c2.8,1.5,4.4,3.9,5.6,6.6c1.7,3.9,5.5,5.9,8.2,9.4c0.8-0.7,1.3-1.1,1.6-1.6c1.8-2.9,4.5-5,7.1-6.9c3-2.1,6.6-3.4,9.9-5.1   c0.3-0.1,0.8,0.1,1,0c4.2-3.7,9.3-3,14.3-3c5.3,0,10.7,0,16.4,0c-0.5,3.5,0.7,6.9-1,10.2c-0.3,0.6,0.5,1.7,0.8,2.5   c3.7-0.1,6.9-3.2,10.5-0.8c3.6-0.1,7,0.8,10.6,1.4c0.6,1,1.3,2.1,2,3.3c0,0.2,0.1,0.5,0.1,0.8c1.1,6.5-3,9.7-7.6,12.7   c-3.5,2.3-5.6,4.4-7.6,7.8c0.7,0,1.4,0.3,1.8,0.1c2.2-1.2,4.6-2.2,6.4-3.9c2.5-2.3,5.9-2.8,8.6-4.8c2.4-1.7,5.9-1.9,8.6-3.3   c2.7-1.3,5.5-2.1,8.3-3.1c2.7-1,5.6-1.9,8.2-3.2c2.1-1,4.6,0.3,6.4-1.6c0.4-0.4,1.1-0.6,1.8-1c1.8-0.5,3.9,0.5,6-0.9   c1.5-1,4.2,0.6,6-1.1c0.3-0.2,1,0,1.5,0c2.2-0.3,4.4,0.4,6.7-0.8c1.7-0.9,4.1,0.3,6.1-1.1c0.6-0.4,1.6-0.1,2.5-0.1   c7.9,0,15.7-0.1,23.6,0c1.9,0,3.7,0.6,5.6,1c1.7,0.3,3.7-0.8,5.1,1c0.1,0.2,0.6,0,1,0c4.4-0.2,8.5,1,12.8,1.9   c2.3,0.5,4.6,0.9,6.8,1.7c2.1,0.8,4.3,0.4,6.5,1.3c4.7,2.1,9.5,3.7,14.3,5.4c2.5,0.9,4.9,2,7.4,2.9c2.9,1,5.2,3.4,8.4,3.9   c3.8,3.4,9,4.6,13,8.8c0.3-1.5,0.5-2.3,0.7-3.1c-2.9-3-5.8-5.8-9.4-7.8c-2.1-1.2-3.7-3.3-5.7-5.3c-0.4-2.3-0.9-4.7-1.3-7   c1.4-1.4,2.4-2.4,3.5-3.5c6.7-2.4,13.7-0.6,20.9-1.4c-0.4-3-0.9-6-1.3-8.9c2-3.1,4.8-3.9,7.9-4c3.8-0.1,7.7-0.2,11.5,0   c2.2,0.1,4.6,0.3,6.5,1.2c4.7,2.3,10,3.6,14.3,6.7c3.6,2.6,7.7,4.7,9.7,9c0.7,0,1.3,0,2,0c2.6-2.7,5.2-5.2,6.9-8.7   c1.1-2.2,2.3-5,5.4-5.8c1-0.3,1.7-1.6,2.6-2.5c1.6,0,3.2,0,5.3,0c2.2,2.9,4.8,6,7,9.3c0.9,1.4,0.9,3.3,1.3,5   c0.8,3.2,1.5,6.4,2.3,9.6c0.1,0.6,0.6,1.1,0.7,1.7c0.3,1.7-0.3,3.4,0.9,5.2c0.9,1.3,0.4,3.3,0.9,5.1c0.5,1.9,1.1,4.5-0.6,6.7   c-0.4,0.5-0.2,1.5-0.3,2.7c3.3-0.5,6.2-0.9,8.7-1.2c10.8,4.6,19.3,11.5,27.3,19.5c-0.4,3.6,4.5,4.8,4.1,9.2c-0.3,0.3-1,1-1.8,1.9   c-0.7,2.2,0,4.5,1.4,6.7c-2.1,1.6-3.9,2.9-5.3,4c2,3.6,3.8,7.1,5.8,10.6c0,1.5,0,3.2,0,5.3c-1,0.3-2.6,0.3-3.3,1.1   c-0.8,0.9-2.6,0.2-2.9,2.2c-0.1,0.8-1.9,1.4-3.3,2.4c1.3,3.3,2.6,6.6,4.6,11.5c0.7,4.8-2.8,10.5-3.8,17.4c1.9,2.5,0.4,5.6-0.9,8.6   c-1.3,2.8-2.8,5.6-5.3,7.3c-2.7,1.7-3.7,4.4-5.4,7.2c0.7,0.4,1.5,0.8,2.5,1.4c0,0,0.7-0.2,1-0.6c3.6-5.7,8.4-9.2,15.2-10.5   c2.9-0.5,5.4-1.1,8.3,0.1c1.4,0.6,3.3,0.1,4.7,0.1c1.3,0.8,2.4,1.4,3.3,2c0.2,0.5,0.4,0.8,0.4,1.1c0,1,0,2,0,3   c0.4,5.6-1.2,10.9-2.2,16.2c-0.3,1.7-0.8,3.4-0.8,5.1c-0.1,1.1-0.3,2.1-0.8,3.2c-1,2.2-1,4.8-2.2,7.1c-0.8,1.6,0.4,3.2,2.4,3.4   c1.4,0.1,2.7,0,3.6,1.8c-0.3,5,1,10.6-1.1,15.7c-2.2,5.1-4,10.5-7.7,14.9c-1.8,2.1-3.5,4.4-6.6,5.5c2.8,2.7,2.9,6.5,4.5,9.7   c1.7,3.5,2,7.3,2.7,10.9c0.7,3.5-0.5,7.4-0.8,11.1c-2.6,3.6-4,7.8-7.4,11c-3.4,3.1-7.3,4.9-11.5,6.3c0,0.8,0,1.6,0,2.6   c4.3,0,8.4,0,12.4,0c0.5,0.5,0.9,0.9,1.5,1.5c0.4,4.6-1.5,9.3-1.1,14.2c0.4,5-0.1,10,0.1,15.1c0.2,4.9-0.2,9.7,0.7,14.7   c0.8,4.7,0.6,9.6,2,14.5c-0.5,0.9-1.3,2.1-2,3.4c-5.5-0.5-10.9-0.9-16.1-1.4c-0.6,0.7-1,1.2-1.7,2c0,4.1,0.7,8.8-2.1,12.8   c-1.3,1.8-3.2,3.3-5.1,4.6c-3.7,2.4-7.8,3.6-12.3,3c-0.4,0.8-0.9,1.7-1.3,2.5c3.1,5.7-2.5,16.3-9.4,15.6c-3.3,1.4-6.7,0.9-10.1,1   c-1.7,0.1-3.5,0.4-5.1,1c-2.7,1.1-5.4,0.6-8.1,1c-2.2,0.4-4.4,1.5-6.5,2.3c-2.7,1-5.4,2.2-8.2,3.2c-2.2,0.7-4.6,1-6.8,1.9   c-5.2,2.1-10.1,4.6-15.2,7c-7.1,3.5-14.1,7.1-21.4,10.2c-2.3,1-4.5,2-6.6,3.4c-3.4,2.2-7.4,3.2-11,4.9c-3.9,1.8-8.1,3.1-11.9,5.2   c-3.7,2-8,2.5-11.9,4c-5.1,1.9-10.4,3.1-15.5,5.1c-0.6,0.2-1.1,0.6-2,1c-2.2-0.2-4.9-0.2-7.2,1.1c-1.6,0.9-3.1,0.8-4.6,1   c-0.9,0.1-1.8,0.6-2.7,0.8c-2.3,0.4-4.7,0.9-7,1.4c-6.1,1.2-12.1,0.6-18.2,0.9c-0.9,0-1.7,0.6-2.8,1c-0.4-0.3-0.8-0.9-1.4-1   c-3.2-0.4-6.4-0.7-9.6-1.1c-1.1-0.1-2.1-0.4-3.2-0.7c-4.2-1.2-8.7-1.4-12.7-3.3c-3.7,0.8-6.6-2.3-10.2-2c-5-2.7-10.6-3.4-15.8-5.4   c-2.3-0.9-4.8-1.3-7-2.5c-2-1.1-4.3-1.7-6.6-2.3c-2.3-0.6-4.3-2.6-6.6-3.3c-5.9-2-11.1-5.5-16.8-7.9c-5.2-2.1-10-5-15.3-6.8   c-1.2-0.4-2.1-1.3-3.2-2c-4.3-2.5-9.2-3.8-13.5-6.1c-4.3-2.2-9-3.3-13.3-5.5c-2.6-1.3-5.4-1.5-8-2.4c-2.5-0.9-5.1-1.5-7.7-2.2   c-4.4-1.1-9.1-0.6-13.4-2.7c-1.5-0.7-3.7-0.3-5.5-0.1c-2.4,0.3-4.4-0.8-6.5-1.4c-2.7-0.8-5.1-4.7-5.2-7.7   C61.5,401.1,61.5,398.2,61.5,395.4z M314.5,261.8c0,0.2,0,0.4,0.1,0.6c0.8,0,1.7,0,2.5,0c-0.2-0.2-0.3-0.3-0.5-0.5   c0.7-0.3,1.4-0.6,2.2-0.9c-0.2-0.3-0.4-0.5-0.5-0.8c-1.2,0.5-2.5,1-3.5,2.2c-0.1-0.1-0.1-0.1-0.2-0.2c-0.3,0.2-0.5,0.5-0.8,0.7   c0.1,0.1,0.2,0.2,0.3,0.3C314.2,263,314.5,262.8,314.5,261.8z M85.6,276.5c0.5,0,1,0,0.4,0c2.1-2.1,3.6-3.6,5.1-5.1   c-2.3,1-4.5,2.3-5.3,5.1c-0.1-0.1-0.1-0.1-0.2-0.2c-0.3,0.2-0.5,0.5-0.8,0.7c0.1,0.1,0.2,0.2,0.3,0.3   C85.3,277.1,85.5,276.8,85.6,276.5z M97.9,341.7c0.3,0,0.6,0,0.9,0c-0.1-1-0.3-2-0.4-3c-0.2,0-0.4,0-0.7,0.1c0,1,0.1,2,1.1,2.8   c0,1.8,0,3.4,0,4.9c1.8,1.1,1.8,1.1,4.2,0.7C101.7,345.3,100.4,343.6,97.9,341.7z M405.7,268.8c-0.3-1.5-0.8-2.8-3.1-2   c1.3,0.8,2.2,1.4,3.3,1.6c2.3,4.4,7.7,5.2,10.5,9c0.6,0,1.1,0,1.4,0.1c0.3,0.7,0.4,1.7,0.9,2.1c3.3,2.1,4.6,5.9,7.1,8.6   c2.5,2.7,3.8,6.7,5.5,10.2c1,1.9,2.5,3.9,2.6,5.9c0.3,5.3,2.4,10.3,2.2,15.7c0,0.2,0.4,0.4,0.9,1c0.6-0.8,1.2-1.5,1.6-2.1   c6.1,1.2,12,1.2,17.5,0.1c4.4,1.4,8.7,0.3,12.6,0.8c1.8-2.8,1.8-2.8-0.2-5c-8.7,0-17.4,0-26.9,0c-0.6,0.6-1.6,1.6-2.5,2.5   c-0.1-0.1-0.7-0.4-0.8-0.8c-0.5-2.5-1-5-1.2-7.5c-0.1-2.2-0.3-4.1-2.2-5.9c0-1.3,0-2.8,0-4.1c-3.6-3.2-4.5-7.7-7.1-11.3   c-2.7-3.8-6.4-6.6-9.8-10.1c-1.8-3.4-5.2-4.8-8.1-6.9C408.8,269.7,408,267.7,405.7,268.8z M98.7,85.7c-0.6-0.3-3.1-0.7-4.2-0.6   c0.8,4.9,5.1,8.8,4.1,14.3c1.9,0.7,2.3,3.2,4.7,3.4c1.4-2.1-0.6-3.5-1.1-5.2c-1.4-3.9-4-7.5-3.4-12.1c0.9,0,1.9,0,2.8,0   c0-2,0-3.9,0-6.2C98.4,80.8,98.7,83.3,98.7,85.7z M66.6,305.6c1.4-1.6,2.5-3.3,3-5.4c0.6-2.9,2.5-5.3,3.9-7.8   c1.8-3.4,4.7-6.3,7.1-9.5c0.2-0.3,0-1-0.1-1.6c0.1,0.1,0.1,0.1,0.2,0.2c0.3-0.2,0.5-0.5,0.8-0.7c-0.1-0.1-0.2-0.2-0.3-0.3   c-0.2,0.3-0.5,0.5-0.6,0.9c-1.7,1.2-4.1,2-4.8,3.6c-0.8,1.8-2.6,2.5-3.2,4.1c-0.7,1.8-2.2,3.2-2.8,4.8c-1.3,3.8-4.1,7.2-3.1,11.1   c-2.6,2-3,4.5-3.1,6.9c-0.2,4-0.1,8,0,11.9c0,0.2,0.3,0.5,0.5,0.7c0.4-0.8,0.8-1.6,1.3-2.5c-1.4-1-1.3-3.2-0.7-3.8   c1.9-1.8,0.4-4,1.4-6C67.1,310.5,66.5,307.9,66.6,305.6z M430,243.1c-1.9,0-3.9,0-6.1,0c-0.3-2-0.8-3.9-0.8-5.7   c-0.1-4.2,0-8.4,0-12.5c1.9-1.8,0.9-4.1,0.9-6.1c0.1-2.3,1.5-4.2,1.1-6.6c-0.4-2.8-0.1-5.7-0.1-8.5c0-4.4-2.3-8.1-3.2-12.2   c-0.1-0.6-0.6-1.1-1-1.6c-0.8,1-0.7,1.7-0.8,2.3c-0.7,3.5,1.2,6.7,1.1,10.1c-0.1,4.5,0,9,0,13.5c0,4.3-0.2,8.7,0,13   c0.2,4.3-1.8,8.3-1.1,12.6c0.1,0.5,0.2,1.2-0.1,1.4c-1.7,1.7-0.7,3.6-0.8,5.6c2.7-0.5,5.1-0.9,7.7-1.4c0.8-1,3.5-0.7,3.3-3.7   c4.1-2.1,4.8-6.5,6.7-9.3c0.4-2.8,0.8-5,1.2-7.4c-0.3-0.6-0.9-1.4-1.6-2.6C433,230.3,429.6,236.2,430,243.1z M73.9,125   c-6.6,4.1-10.6,9.9-15,14c-0.9,4-2.2,7.2-2.3,10.4c-0.2,5.7-1.5,11.3-1.2,17.1c0.2,4.2,0.8,8.2,2.1,12.2c0.7,2,1.8,2.5,3.5,2.3   c2.9-3.4,2.4-8.1,4.6-11.7c-0.3-3.4,0.3-6.8,1-10.1c0.8-3.8,1.2-7.8,4.7-10.6c1.7-1.4,3-3.3,4.3-5.2c1.5-2.3,3.2-4.7,4-7.4   c1-3.6,2.5-7,4.2-10.3c0.9-1.7,1.4-3.2,0.5-4.9c-1.1,0.7-2.2,1.3-3.2,2.1c-5.3,4.7-9.2,10.6-12.4,16.9c-1.5,3-2.7,6.2-4,9.4   c-2.3,5.4-4.6,10.8-4,16.9c0.1,0.6,0,1.2-0.1,1.8c-1.1,0-1.9,0-3,0c0.5-3-0.8-6,1.1-8.7c-0.1-4.1,1.8-7.7,3.2-11.2   c1.6-4.1,2.9-8.5,6-12.1c2.1-2.4,3.9-5.3,5.5-8.2c0.3-0.5,0.3-1.2,0.3-1.9c0.1,0.1,0.1,0.1,0.2,0.2c0.3-0.2,0.5-0.5,0.8-0.7   c-0.1-0.1-0.2-0.2-0.3-0.3C74,125.2,73.7,125.5,73.9,125z M107,79.8c0.6-0.6,1.4-1.2,2-2c1.8-2.2,4.3-3.6,6.8-4.1   c4.1-0.9,6.3-4.3,9.5-6.2c2.8-4.8,5.8-9.6,7.5-14.9c1.5-4.4,3.1-8.6,7-11.7c2.6-2.1,3.6-4.9,3-8c-1.1-2-3.2-2.1-4.4-1.3   c-1.5,1-2.8,0.7-4.2,0.8c-2,0.1-4,0-5.5,0c-1.5,0.8-2.6,1.9-3.7,1.9c-3.2,0-5.6,1.8-8.4,2.8c-6,2.2-10.7,6.3-15,11   c1.2,3.4,2.3,6.7,3.5,10.1c0.3,0.9,1,2.1,0.6,2.7c-1.6,2.4-0.7,5.7-3,7.4c0.6,2.3,1.1,4.2,1.5,6.1c0.2,0,0.3,0,0.5,0   c0-1.6,0-3.2,0-4.4c0.7-0.7,1.2-1,1.4-1.4c1.4-3,3.5-5.3,5.6-7.7c3.1-3.5,5.9-7.4,6.3-12.2c3-2.6,5.1-5.9,8.8-7.3   c0.2-0.1,0.6,0.2,1,0.3c0,0.8,0,1.5,0,2.2c-1.8,1.5-3.5,3-5.3,4.3c-2,1.6-2.3,4.1-3.2,6.2c-0.2,0.6-0.3,1.2-0.7,1.7   c-2.8,3.3-4.6,7.4-8.1,10.2c-1.7,1.3-2.5,3.1-2.7,5.4c-0.2,2.2-1.1,4.4-1.6,6.5c0.3,0.4,0.6,0.8,0.7,1.3c-1.2,1.4-2.4,2.7-3.6,4.1   c-0.1,0.2-0.2,0.4,0,0c0.4,0.9,0.7,1.5,1,2.1C106,83.9,107,82,107,79.8z M207,182.1c1.4-2.5,4.2-3.7,5.3-6.1   c-0.7-0.8-1.2-1.5-1.6-2c-5,2.3-5.7,3.1-6.5,6.9c-0.1,0.4,0.2,0.9,0.4,1.3c0.8,0,1.5,0,2.6,0c0,0.8,0,1.7,0,1.3   c0.8,1.5,1.2,2.3,1.4,2.8c3.3-0.3,5.7-2.4,8.7-2.1c0.4,0,0.8-0.4,1.2-0.7c3.8-2.8,7.5-5.6,9.9-9.8c1-1.7,2.9-2.4,4.9-2.5   c2.8-0.2,5.5-1.2,8.3-1.7c5-0.9,8.3-4.7,12.6-7.2c1.5,1.2,3.4,2.2,4.3,3.7c2.6,4.1,6.4,7.1,9.7,10.5c2.8,2.9,6.4,4.5,10.2,5.7   c1.6,0.5,3.3,0.7,4.9,1c0.3,2.2,1.6,3.6,3,3.9c3.6,0.9,6.6,4,10.5,3.1c3.6-2.6,7.8-4.3,10.1-7.9c3.3-0.5,5.3,1.6,7.8,2.5   c2.4,0.8,4.9,1.1,7.4,1.7c2.7,0.6,5.4,0.6,8.3,0.8c0.5,0.7,1,1.5,1.6,2.3c-1.2,0.6-2.2,1.2-3,1.6c-2.7-0.7-5.3-1.8-7.8-1.8   c-4.6,0-8.4-2.1-12.2-4c-2.4,1.2-3.7,3.6-6.3,4.3c-0.8,0.2-1.5,0.8-2.9,1.5c1.4,0.9,2.2,1.8,3.1,2c5,1.2,9.8,2.9,14.4,5.3   c3.1,1.6,5.5,3.8,6.5,7.5c-0.6,1.1-1.2,2.4-1.9,3.6c-0.7,1.2-1.4,2.3-2.2,3.5c4,0,8.3-2.9,11.1-7.5c0-2.5,0-5.3,0-8.2   c1,0,1.7,0,2.5,0c0.4,1.3,0.9,2.7,1.4,4c-1.2,1.7-1.7,3.4,0.7,4.9c4.2,0,8.5,0,12.7,0c1.3-1.2,2.5-2.4,3.6-3.5   c-0.3-4.2,2.6-7.6,2.1-11.8c-0.5-4.3,0.2-8.7-0.2-13c-0.3-3.9-1.4-7.7-2.3-12c-2.6-2.2-5.5-4.6-8.3-7c-3.1,0.6-5.9-0.7-8.8-0.8   c-4.7-0.1-9.3-1.9-14.1-1.1c-0.4,0.1-0.9-0.1-1.4-0.3c-1.3-0.5-2.5-1.4-3.8-1.6c-1.6-0.3-3.3-0.1-4-0.1c-2.3-0.9-3.7-1.6-5.2-2   c-4-1.2-8.2-2-12.1-3.4c-5.4-1.9-10.7-4.1-16.6-1.6c-0.6,0.2-1.6,0.3-2,0c-1.7-1.5-3.8-0.9-5.6-0.9c-4.3-0.1-8.7,0-13,0   c-1.9,0-3.8,0.4-5.6,0.9c-2,0.5-4.1,0.4-6.1,1.1c-4.8,1.6-9.5,3.3-13.1,7.2c-0.7,0.8-1.8,1.4-2.8,1.8c-7.3,2.8-11.6,9.1-16.9,14   c1,1.8,1.7,3.2,2.3,4.4C211.4,180.9,211.3,181,207,182.1z M125.8,252.4c0-1.4,0.2-2.2,0-3c-1.2-4.4-3.3-8.6-3-13.3   c-1.8-2.2-0.7-4.7-1-7.1c-0.3-2.5-1-5.1-0.9-7.6c0.2-6.4-0.4-12.8,0.7-19.2c0.8-4.7,1.2-9.5,2.2-14.2c0.7-3.4,1.6-6.7,2.6-10   c2.3-7.3,5-14.4,8.9-20.9c2.7-4.6,5.1-9.3,8.3-13.7c3.6-5,7.4-9.7,11.5-14.3c5.1-5.6,10.9-10.3,16.9-14.8c5-3.8,10.2-7.2,15.9-10   c4.6-2.3,9.2-4.3,14-6.1c4.8-1.8,9.7-3.3,14.7-4.6c2.2-0.6,4.4-0.6,6.5-1.3c4.7-1.6,9.6-2.4,14.5-2.5c8.6,0,17.2-1.2,25.7,0.8   c1.7,0.4,3.8-0.3,5.5,0.2c1.8,0.5,3.8,0.5,5.2,1.9c0.2,0.2,0.6,0,1,0c2.7,0,5.2,1.1,7.8,1.7c2.3,0.5,4.5,1.9,6.6,2.1   c2.6,0.2,4.4,1.8,6.7,2.3c2.2,0.5,4.4,1.5,6.5,2.5c7.6,3.4,14.7,7.6,21.4,12.6c4,3,8,6,11.6,9.5c4.4,4.2,8.6,8.6,12.6,13.3   c4.6,5.4,8.2,11.3,11.5,17.4c3.3,6.1,6.3,12.4,8.7,19c2.6,7,4.3,14.3,6.4,21.4c-0.8,5.1,1.2,10,1,15.1c-0.2,4.3,0.1,8.7-0.1,13   c-0.2,4.4-0.6,8.8-1,13.1c0,0.5,0,1.1-0.3,1.4c-1.4,1.4,0.1,3.6-0.8,4.7c-1.5,1.7-0.4,3.5-0.8,4.6c-0.9,1.8-1.6,3-2.3,4.4   c1.5,1.6,3.1,2.9,5.4,2.7c2.1-0.2,3.8,0.6,5.4,2c2.1,0,4.3-0.2,6.3,1.3c0.6,0.4,1.5,0.5,2.2,0.7c1.5,0.4,3.5,0.3,4.5,1.2   c3.5,3.2,8,4.2,11.8,7c2.2-1.7,2.5-4.1,2.7-6.4c0.5-3.9,2.7-7.5,2.3-11.6c2-3,1.8-6.4,1.8-9.8c0-1.2-0.4-2.6,0.1-3.5   c1.3-2.2,1-4.5,0.8-6.7c-0.2-2.4,1.1-4.4,1-6.6c-0.2-4.7,1.1-9.5-0.9-14.1c0.8-5-1.5-9.7-0.9-14.6c0.5-5-1.8-9.4-2.6-14   c-0.6-2.9-1.6-5.8-1.4-8.5c-0.5-0.7-0.8-1.1-1-1.5c-2.2-4.6-2.9-9.8-4.9-14.6c-0.6-1.4-1.8-2.2-2.2-3.6   c-2.1-7.6-6.9-13.8-10.4-20.8c-0.9-1.9-2.1-3.8-3.4-5.6c-5.8-8-12-15.7-18.8-22.8c-4.1-4.3-8.3-8.5-13-12.1c-4.1-3.1-7.7-7-12-9.8   c-7.4-4.9-15.1-9.3-23.1-13.2c-2.8-1.3-5.4-3.2-8.4-4c-3.3-0.9-6.2-2.7-9.7-3.3c-3.5-0.5-6.7-2.2-10.2-3.2c-7-2-14.1-3.6-21.2-4.5   c-7-0.9-14-1.8-21.1-1.2c-1.3,0.1-2.7,0.1-4,0c-6.9-0.7-13.7,1.3-20.7,1c-0.3,0-0.8-0.1-1,0c-1.8,1.7-4.2,1.3-6.3,1.8   c-2.1,0.5-4.4,0.6-6.6,1.2c-4.4,1.2-8.7,2.3-13.1,3.5c-5.3,1.4-9.9,4.4-15.2,5.7c-3.3,0.9-6.7,2.6-9.6,4.5   c-5.6,3.4-12,5.6-16.8,10.4c-6.7,3-12,8-17.3,12.7c-8.5,7.5-16.6,15.6-23.2,24.9c-3.1,4.4-6.5,8.6-9.1,13.3   c-0.3,0.5-0.5,1.1-0.9,1.6c-5.6,7.9-9.1,16.9-13.2,25.7c-0.8,1.8-1.5,3.8-2,5.7c-0.9,3.1-1.7,6.3-2.6,9.5c-1.4,5.3-3,10.6-3.5,16.1   c-0.1,1.2-0.8,2.4-0.9,3.6c-0.2,1.5,0.5,3.3-0.1,4.5c-1.4,2.5-0.6,5.1-0.9,7.7c-0.3,2.5-1,5.1-0.9,7.6c0.1,5.1-1,10.2,0.9,15.1   c-0.7,4.6,0.7,9.1,1.1,13.6c0.3,3.6,0.6,7.3,1.9,10.7c0.6,1.6,1.2,3.3,1.1,5.1c-0.1,0.9,0.6,1.7,0.8,2.6c0.4,1.5,1,3,1.1,4.6   c0.2,2.1,1.1,3.6,2.5,5.1c0.6,0,1.5,0.3,1.9,0c3.2-2.8,7.5-4,10.8-6.6c0.9-0.7,1.8-1.1,2.9-1.5c2.9-0.9,5.7-2.4,9-3.9   C119.2,256.1,122,253.3,125.8,252.4z M145,224.6c-2.7-2.4-5.7-0.3-7.9-1.7c-2.9-1.9-5.2,2.1-7.6,0.3c-2.8,2.3-4.9,5.2-3.5,8.2   c1.2,2.5,0.1,5,1.5,7.5c1.2,2,0.8,5,1.4,7.4c0.4,1.8,1.3,3.5,2,5.2c4.4-0.4,8.4-0.7,12.4-1.1c0.1,0,0.2-0.2,0.4-0.3   c3.5-1.5,7.2-0.3,10.7-0.7c1.5,1.8,3.9,0.9,5.8,1.8c1.8,0.8,4.3,0.3,6.4,0.1c2.4-0.2,4.3,1,6.2,2c2.6,0.1,5.1-0.2,7.4,1.6   c1.8,1.3,4.3,1.6,6.5,2.5c5.6,2.5,11.2,5,14.4,10.8c-0.4,2.4-0.1,4.7-0.9,7.2c-0.8,2.6-1,6.1,0.9,8.5c2.7,3.5,4.8,7.4,7,11.5   c0,3,0,6.4,0,9c-0.9,3.1-2.7,4.5-5.4,5.3c-1.2-0.9-2.7-1.8-4-3c-1-0.9-1.7-2.1-2.7-3.1c-1-1-2.4-1.8-3.3-2.9   c-4.7-5.6-11.4-7.9-17.5-11.1c-2.6-1.3-5.7-1.8-8.7-2c-5.1-0.3-10.3-0.1-15.3-0.1c-0.7,0.8-1.2,1.4-1.7,2.1c2.7,3,4.9,6,7.6,8.6   c4.4,4.3,8.5,8.7,13.3,12.6c6.3,5.2,12.9,8.9,21.3,14.1c4.7,2.9,10.2,3.6,15.2,5.7c2.3,1,4.7,1.6,7.1,2.2c3.1,0.8,5.9,2.2,9.2,1.8   c4.7,3,10.3,1.7,15.4,2.8c4.8,1,10,0.3,15,0.2c4.9-0.2,9.8-0.6,14.6-1c0.2,0,0.4,0.1,0.5,0c3.3-2.2,7.3-1.7,10.8-2.9   c5.5-1.8,19.3-5.7,25.3-9.1c2.5-1.5,5.3-2.6,7.8-4.1c5.5-3.2,10.5-7.2,15.4-11.2c2.1-1.7,4.1-3.7,6.2-5.5c2-1.7,3.5-4.2,5.5-6.1   c2.3-2.3,4.7-4.7,7.3-7.3c-0.8-1.2-1.5-2.2-1.9-2.8c-1.9,0.4-3.3,0.7-4.7,0.8c-3.2,0.2-6.4,0.2-9.6,0.9   c-7.8,1.7-14.5,5.2-20.2,10.5c-4.2,3.9-7.9,8.3-11.9,12.6c-1.3,0-2.8,0-4,0c-3-2.6-5.2-5.3-4.2-9.4c1-2.1,1.8-4.2,2.8-6.4   c0.8-1.8,1.7-3.7,2.7-5.4c2.7-4.4,3.6-8.8,0.3-13.6c0.1-2.4-0.5-5.1,1.7-7.5c6.1-6.8,14.2-10.4,22.4-13.8c4.6,0.2,8.1-3.2,12.7-3.4   c3.5-0.2,7.1-1.7,10.8-1.7c2.3,0.1,5,0.7,6.9-0.2c2.3-1.1,4.8-1.3,6.6-0.6c2.6,0.9,5.1,0.6,7.6,0.8c0.9-0.9,1.7-1.7,2.5-2.5   c0.1-2.3-0.2-4.5,1-6.7c0.7-1.3,1.1-3,1-4.6c-0.1-4.3,1.8-8.3,1.1-12.6c-0.1-0.3-0.1-0.7,0-1c2.2-4.1,0.4-8.4,1-12.6   c-1.4-1.9-1.3-4.1-0.9-6.1c0.4-2.3-1.4-4.1-1-6.1c0.8-4.9-2.5-9-2.2-13.7c-1.9-2.6-1.9-5.9-2.8-8.9c-1-3.1-2.6-6-3.4-9.2   c-0.4-1.7-2-3-3.4-4.9c-1.2,5.4,2.4,9.5,1.7,14c2.4,2.7,2.9,6.2,3.8,9.2c1,3.2,2.2,6.8,2,10.1c-0.2,3.3,2.5,6.5,0.3,9.4   c1.5,2.8,0.9,5.7,0.8,8.4c-0.1,2.9,0.4,5.8-0.5,8.8c-0.8,2.6-0.5,5.5-0.6,8.5c-1,0.5-2.1,1-3.1,1.5c-0.5-0.5-0.8-1-1.2-1.1   c-2.8-0.4-4.3-2.3-5.6-4.6c-1.5-2.7-3.4-5-6.3-6.3c-1-0.5-1.9-1-2.7-1.4c0-3,0-5.7,0-8.3c-0.5-0.5-1-1-1.5-1.5c-4,0-8,0-12,0   c-4.4,3-8.5,6.4-13.7,8.1c-0.6,0.2-1.1,0.7-1.5,1.2c-1.7,2-3.9,3.2-6.3,4.3c-1.3,0.6-2.4,1.5-3.5,2.5c-2.2,1.9-5,2.6-7.8,3.1   c-3,0.5-6.4,0.1-9,1.2c-2.4,1.1-5,0.4-7.4,1.7c-2.7,1.4-5.9,1.4-9,1.2c-0.7-0.1-1.7-0.3-1.9,0c-1.2,1.4-2.8,0.7-4.2,1   c-1.4,0.2-2.7,0.7-4.1,1c-0.6,0.1-1.5,0.2-1.9-0.1c-3.3-2.3-7.1-1.8-10.8-1.9c-0.9,0-1.9-0.3-2.8-0.5c-4.8-1-9.5-2.8-14.4-2.5   c-1.6,1.4-2.9,3-4.6,3.9c-1.6,0.9-3.5,1.4-5.3,1.7c-2.4,0.4-4.9,0.4-7.8,0.6c-0.9-1-1.8-2.2-2.4-2.9c-3.4-1-5.6,0.8-8.1,2   c-3.5-1.6-7.3-2.6-7.8-7.5c-3.7,0.6-6.6,3.5-10.7,1.9c-3.5-0.5-4-4.7-6.5-6.5c-7.3-0.6-12.3-4-14-11.2c-4.5,2.6-7.7,7.1-13.3,6   C151.2,219.7,148.2,222,145,224.6z M69.1,399.9c2.9,0.1,5.7-0.3,8.3,1c5.1-0.9,9.7,2.3,14.7,2c3.8,2,8.2,2.1,12.2,3.3   c6.6,2.1,13.3,4.1,19.4,7.7c4,2.4,8.3,4.2,12.4,6.5c6.7,3.8,13.8,7,21,9.9c3,1.2,5.8,2.8,9,3.7c5.3,1.6,10.7,3.4,15.5,6.1   c3.9,2.2,8.2,2.8,12.1,4.8c1.5,0.8,3.1,1.8,4.7,1.9c2.9,0.3,5.3,1.7,8,2.6c3.8,1.4,7.7,3.2,11.6,3.3c5.1,0.1,9.6,2.9,14.7,2.2   c2,1.9,4.6,0.2,6.6,1.1c2.2,1,4.4,0.9,6.7,0.9c2.5,0,5-0.1,7.5,0c2.6,0.1,4.9-1.4,7.6-1.1c4.2,0.5,8.2-0.9,12.2-2   c1.7-0.5,3.3-0.9,5.1-1c2.3-0.1,4.7-0.6,7-1.3c5.1-1.4,10-3.4,15-5.1c5.8-2.1,11.5-4.5,17.2-6.9c3.6-1.5,7-3.4,10.7-4.5   c3.3-1,6.5-2.2,9.5-3.6c2.9-1.4,5.9-2.6,8.9-3.9c1.6-0.7,3.7-0.8,4.7-1.9c2.3-2.5,6.3-1.9,8.1-4.9c2.9,0.4,4.2-2.6,6.8-3.1   c2.4-0.5,4-3,6.6-3.3c3-3.7,8.3-2.8,11.7-5.6c2.6,0.6,4.4-1.6,6.7-1.9c6.3-0.8,12-4,18.4-4.1c4.1-2.4,8.7-1.9,13.2-2   c2-0.1,4.1-0.5,5.3-0.6c1.4-1.9,2.2-3,3.1-4.1c0-7.2-0.3-14.4,0.1-21.5c0.4-7.1-1.5-14.1-1.1-21.2c0-0.2-0.4-0.4-0.4-0.5   c-1.9,0.3-3.6,0.6-5.3,0.8c-5.4,0.4-10.8-0.5-16.2,0.9c-2.7,0.7-5.7,0.8-8.3,1.9c-2.8,1.1-5.8,0.9-8.6,2.2c-2.1,1-4.6,1-6.3,1.3   c-2.1,0.8-3.5,1.2-5,1.8c-2.6,1.1-5.5,1.3-8,2.5c-6.5,3-13.3,4.9-19.7,8.2c-4.6,2.4-9.7,3.9-14.4,6.3c-4.7,2.4-9.9,3.6-14.6,6.1   c-2.3,1.2-4.4,3-7.3,3.1c-8.2,4.5-17.1,7.1-25.7,10.6c-1.4,0.6-2.9,1.3-4.4,1.3c-4.2,0.2-8,1.9-12.1,2.4c-2.9,0.4-5.8,1.3-8.8,1.8   c-2.4,0.4-5.1,0-7.1,1c-3,1.5-5.8,0.5-8.7,0.8c-3,0.3-6.1,0.6-9-0.1c-1.9-0.5-3.7-0.7-5.6-0.9c-2-0.2-4.1-0.8-6.1-0.9   c-2.2-0.1-4.2-0.3-5.7-2c-4.5,0-8.6-1.6-12.9-2.8c-3-0.9-5.8-2.4-8.7-3.1c-3.2-0.8-6.2-2.1-9.3-3.1c-3.3-1.1-6.3-2.5-9.4-3.9   c-2.6-1.2-5.2-2.6-8.1-3.5c-3.8-1.2-7-4-10.8-5.4c-3.8-1.4-7.2-3.8-11.2-4.4c-4.1-3.5-9.5-4.6-14.3-6.7c-5.3-2.3-10.9-4.5-16.6-5.9   c-3.6-0.9-6.9-2.7-10.6-3.5c-5-1.1-10-2.3-14.9-3.8c-3.6-1.2-7.3-2-11.2-2c-1.6,0-3.1,0.3-4.7-0.8c-0.9-0.7-3,0.3-4.9,0.5   c-1.6-0.5-3.7-1.1-5.8-1.7c-0.8-0.2-1.6,0-2.8,0c0.3,4.7-0.5,9.2-0.7,13.7c-0.5,8.8-0.2,17.7-0.1,26.6   C65.6,395,66.5,397.7,69.1,399.9z M112.7,311.6c1.4,1.9,2.6,3.6,3.8,5.3c1.9,2.6,3.6,5.3,5.7,7.7c7.2,8,15.3,15,23.7,21.6   c1.7,1.3,3.1,2.9,4.9,3.9c3.1,1.7,5.7,4,8.7,5.7c2.7,1.6,5.7,2.6,8.2,4.3c6.2,4.2,13.1,7.1,20.1,9.8c1.3,0.5,2.4,1.8,3.7,1.9   c2.8,0.2,5,1.6,7.6,2.4c2.5,0.8,5.2,1.2,7.8,1.8c0.9,0.2,1.8,0.7,2.7,0.8c4.4,0.8,8.6,2.8,13.2,2c0.1,0,0.3,0.2,0.4,0.3   c1.2,1.3,3,0.1,4.2,0.8c1.4,0.7,2.7,0.9,4.1,0.9c7.9,0.5,15.9-1.1,23.7,1c0.5,0.1,1.2,0.2,1.5,0c1.9-1.6,4.1-0.9,6.1-1   c2.7-0.1,5.5,0.2,8.1-0.9c1.7-0.7,3.7-1.1,5.6-1c4.6,0.3,8.8-1.6,13-2.7c6-1.5,12-3.3,17.8-5.3c5.7-2,10.8-5.4,16.6-7.1   c3.2-3.2,8.1-3.6,11.2-6.9c2.9-0.3,4.4-3,6.8-4.2c3-1.5,5.5-3.7,8.1-5.8c2.4-1.9,4.5-4.4,7.1-5.9c3.5-1.9,5.8-4.9,8.3-7.6   c2.6-2.8,5.7-5,8.3-7.9c4.6-5,8-11,12.6-15.9c0.5-0.5,0.5-1.5,0.8-2.6c-1.9-1.5-3.8-2.9-5.7-4.4c-3.9-3.2-8.1-6-12.7-8.1   c-2.4-1.1-4.9-2-7.3-3c-3.1-1.3-6.2-2.3-8.9-2c-3,3.6-5.6,6.7-8.2,9.8c-1.6,2-4.2,3.2-5,6c-2.9,0.9-4.2,3.6-6.3,5.3   c-3.8,3-7.4,6.3-11.4,9c-5.7,3.8-11.5,7.5-17.9,10.2c-5.3,2.2-10.7,3.9-16.1,6c-1.9,0.7-3.8,1.8-5.7,1.9c-4.7,0.2-8.9,2.9-13.7,2.1   c-2.7,2.1-6.2,0.7-9.3,1.8c-3.2,1.1-6.9,0.2-10.5,0.2c-2.7,0-5.4,0-8,0c-0.8,0-1.8,0.2-2.5,0c-5-1.8-10.3-1.2-15.4-2.8   c-2.5-0.8-5.2-0.9-7.8-1.8c-2.6-0.9-5.5-1.3-8.1-2.1c-4.2-1.3-8-3.3-12-5c-1.9-0.8-4.2-0.7-5.7-1.9c-3.6-2.9-8.7-3.4-11.5-7.4   c-4.8-2.1-8.6-5.6-12.3-9.2c-0.8-0.8-1.9-1.1-2.7-1.9c-3.6-3.6-7.2-7.3-10.7-11c-2.7-3-5.2-6.1-7.7-9.2c-1.7,0.8-3.1,2.1-4.5,2.1   c-2.8,0-4.7,1.7-7,2.7c-1.6,0.7-3,1.6-4.5,2.5c-3,1.9-6.1,3.6-8.4,6.3c-1.3,1.5-2.6,3.1-4.3,4.2   C113.9,308.2,112.8,309.3,112.7,311.6z M168.8,158.9c3.4,0.3,7,0.2,10.4-0.9c1-0.3,2.1-0.7,3.1-1c5.1-1.4,10.3-2.6,15.4-4.1   c6.6-1.9,13.1-3.9,19.6-6c3.1-1,6-2.4,9.1-3.6c2.3-0.9,4.7-1.6,7-2.4c4.2-1.4,8.3-2.9,12.8-3c2.2,0,4.4-0.1,6.5,0   c2.1,0.2,4.1,1,6.1,0.9c4.4-0.1,8.7,0.4,13.2-0.7c3.1-0.8,6.7,0.2,9.7,0.4c2,2.1,3.7,3.8,5.2,5.4c0.6,0,1.2-0.2,1.6,0   c3.9,2,7.9,3.5,12.1,4.6c4.2,1.1,8.4,2.6,12.7,3.2c2.3,0.3,4.2,1.3,6.2,2.2c5.9-0.3,11.7,1.8,17.7,1c0.3,0,0.8-0.1,1,0   c2.3,2.7,4.7,0.4,6.7-0.2c2.5-0.7,4.6-2.7,7.2-4.3c-3.7-4.6-6.9-9.4-10.9-13.5c-4.8-5-9.5-10.1-15-14.4c-5-3.9-10.2-7.6-15.7-10.8   c-6.7-3.9-13.8-7-21.1-9.6c-4.1-1.5-8.2-3.3-12.6-3.4c-2.4,0-4.2-1.1-6.2-2.1c-2.3,0-4.7,0.1-7,0c-2.4-0.2-4.8-1-7.1-0.9   c-7.1,0.2-14.1-0.6-21.2,0.8c-4.2,0.8-8.8-0.5-12.7,2.2c-4.7-0.1-9,1.5-13.3,3c-5.4,2-10.8,3.7-15.9,6.3c-3.8,1.9-7.2,4.5-10.9,6.5   c-6.9,3.9-12.9,8.9-18.7,14.1c-6,5.4-11.3,11.4-16,18c-1.6,2.3-3.2,4.6-4.7,6.8c0.6,0.6,1.1,1,1.4,1.3c3.2-1.5,6.1-3.1,9.6-2.8   c3.4-2.4,6.5-0.3,9.2,1.1C165.2,154.2,166.6,156.6,168.8,158.9z M232.4,174.3c-1.5,1.6-3.8,3.2-5,5.5c-2,3.7-5.2,6-8.7,7   c-3.5,1-7.1,3.2-11.3,1.3c-3.5-1.6-7.8-3.3-7.3-8.3c1.6-2.1,2.7-4.4,4.6-5.7c2.6-1.8,4.5-4,6.5-6.3c3.1-3.7,6.4-7.4,10.7-9.9   c3.8-2.2,7.7-4.3,11.1-7.2c2.1-1.8,4.7-3,7.4-3.8c1.6-0.5,3.2-1.2,5-1.9c3.1-0.3,6.5-0.9,9.9-1c3.7-0.2,7.4-0.2,11,0   c3.4,0.2,6.9-0.9,9.9,0.8c1.8-0.5,3.5-0.9,5.2-1.3c-0.1-0.5-0.1-0.9-0.3-1.9c-5.9,1.9-11.8-1.8-17.7,0.4c-0.7,0.3-2,0.4-2.4,0   c-1.6-1.5-3.4-0.9-5.2-0.9c-3.2-0.1-6.4,0-9.5,0c-2.9-0.1-5.6,1.1-8.3,1.7c-4.6,1-8.5,3.7-13,5c-2.6,0.7-4.9,2-7.8,3.4   c-2.5-0.5-5.2,1.4-8.1,1.9c-3,0.4-5.8,1.6-8.6,2.5c-3,1-6,1.6-9,2.5c-2.8,0.9-5.5,2.2-8.6,2.4c-2.7,0.2-5.3,1.7-8.8,2.9   c-0.9-0.1-3.2,0.4-4.8-0.4c-2.5-1.2-4.9-0.7-7.3-0.5c-1.9,0.2-4.2,1.2-5.3,2.7c-2.4,3.2-4.4,7-4.8,11c-0.4,4.5-0.3,9,0,13.5   c0.1,2,1.4,4,0.9,6.1c-0.1,0.5-0.7,1.1-0.6,1.5c1.5,5.3,2.1,9.1,8.5,12.3c2.9-0.1,5.8,0.4,8.6-1c4.2-2.1,8.7-2.3,13.2-2   c1,0,2,0,3,0c1.3,2.4,4.1,2.2,6.2,3.2c2.7,1.2,4.7,3.9,7.9,4c2,2.7,6.2,1.9,8,4.9c6,0.5,10.6,5.8,17,5c3.9,2,8.2,2.1,12.3,2.8   c4.2,0.8,8.2,2.9,12.7,2.2c1.8,1.9,4.2,0.3,6.1,1.1c2,0.8,4.1,0.8,6.1,1c6.8,0.5,13.4-1,20-1.1c0.6-0.5,1.1-0.9,1.5-1.4   c-0.5-0.5-1-1-1.4-1.4c-4.4-0.6-8.9,0.7-13.2-1.1c-1.3-0.5-3,0.1-4.5-0.1c-1.4-0.2-2.7-0.6-4.1-1c-1.2-0.3-2.4-0.8-3.6-1   c-1.3-0.2-2.8,0.3-3.9-0.2c-2.3-1.1-4.7-1.6-7.3-1.9c-2.2-0.3-4.2-1.5-6.8-2.5c0.9-1.1,1.5-1.7,1.7-1.9c1.5,0.2,2.7,0.3,3.7,0.6   c2.2,0.7,4.3,1.9,6.7,2c2.6,0.1,4.9,1.6,7.6,1c0.2-0.1,0.6,0.2,0.9,0.3c3,1,6.1,1.9,9.4,1.7c3.4-0.2,6.6,1.7,10.1,1   c2,1.8,4.6,0.3,6.6,1.1c2.2,0.9,4.4,0.9,6.7,0.9c2.5,0,5-0.1,7.5,0c2.1,0.1,4.2,0,6-1.4c0-0.7,0-1.5,0-2.5   c-1.2-0.1-2.5,0.2-3.4-0.2c-3.4-1.9-7.4-1.4-10.9-2.9c-5.2,0.6-10-2.3-15.2-2c-2-1.4-4.6-0.9-6.8-1.6c-4.6-1.4-8.7-4-13.3-5.6   c-3.2-1.1-6.2-2.7-9.4-3.9c-0.8-0.3-1.6-1-2-1.8c-0.3-0.6,0.1-1.5,0.2-2.2c0.9,0,1.5-0.2,1.8,0c5.5,3.3,11.9,4.5,17.4,7.8   c2.1,1.3,4.4,2.9,6.7,3c2.6,0.2,5,1.1,7.6,1.2c4.6,0.1,9,1.7,13.5,2.5c3.2,0.5,6.4,2.1,10.3,1.3c0.4-1.6,0.7-3.2,1.1-4.9   c0.6,0.2,1.1,0.3,1.3,0.4c-0.3,1.1-0.6,2.2-0.9,3.3c1.3,0.9,2.5,1.6,3.6,2.3c2.2,0,4.4,0,6,0c2.2-1.3,1.6-3,1.5-4.6   c-0.5-0.5-1-1.2-1.6-1.2c-3.4,0-6.4-1.6-9.3-3.1c-0.8-0.4-1.7-1-2.6-1c-1.7,0-3.1-0.5-4.6-1c-1.5-0.5-3-0.4-4.6-0.9   c-2.7-0.9-5.7-1-8.6-1.1c-2.6-0.1-5.3-0.8-7.1-2.2c-4.7-3.5-10.3-5.3-15.1-8.6c-4.3-3-9.2-5.3-13.8-7.9c-0.5-0.3-0.8-0.9-1.2-1.5   c0.7-1,1.2-1.7,1.6-2.2c5.3,3.1,9.9,5.7,14.4,8.5c5,3,10.2,5.4,15,8.8c1.7,1.2,4.1,2,6.1,2c2.8,0,5.5,0.5,8.1,1.3   c2.1,0.7,4.1,0.8,6.2,0.9c1,0,1.9,0.7,2.6,0.8c2.8,0.5,5.7,2.8,8.7-0.2c2.4,2.5,4.7,5.2,7.9,4.4c2.6-1.4,1.9-3.2,1.8-4.9   c-2.7-1.5-5.1-3.8-8.8-3c-0.6,1-1.1,1.9-1.6,2.8c-0.5-0.5-0.9-0.9-1.3-1.3c0.3-0.8,0.4-1.6,0.9-2.1c0.6-0.6,1.4-0.9,2.6-1.6   c-1.2-0.9-1.9-1.9-2.6-1.9c-3.8,0-6.9-2.1-10.3-3.1c-3.4-1-6.7-2.5-10.1-3.5c-3.2-1-5.7-3.4-9.1-3.5c-4.2-2.8-9.8-3.8-12.3-9   c-0.3-0.6-0.8-1.1-1.4-1.4c-3-1.3-4.8-3.9-7-6.1c-1.6-1.6-3.2-3.1-5.7-3.6c-2.1,3.9-6.8,3.6-9.8,5.8   C238.8,173.3,235.8,173.8,232.4,174.3z M432.5,329.8c1.1-2.3-0.2-4.1,1.4-5.5c0.3-0.3,0.4-1.5,0.1-1.9c-1.7-1.9-1-4.1-0.9-6.1   c0.1-2.7-0.8-5-1.5-7.5c-0.1-0.4-0.6-0.8-0.6-1.2c0-4.6-1.8-8.6-4.1-12.4c-2.7-4.4-5.3-8.7-9.1-12.4c-4.9-4.8-9.9-9.4-15.9-12.7   c-4.6-2.5-9.2-5.1-14.2-6.8c-6.9-2.3-13.6-5-21-5c-0.2,0-0.4,0.1-0.5,0c-2.8-2.2-6.1-0.7-9.1-0.9c-3.2-0.3-6.5-0.6-9.5,0.1   c-1.9,0.4-3.7,0.7-5.6,0.9c-2,0.2-4.1,0.8-6.1,0.9c-2.6,0.1-5,0.9-7.3,1.7c-4.7,1.7-9.5,2.6-13.9,5.2c-3,1.8-6.8,2.1-9.5,4.9   c-1,1-2.8,1.1-4.5,1.6c0,1.3,0,2.8,0,4.3c2.4,4.1,2.1,4.4,1,8.8c-1.3,5.3-5.4,9.1-7.2,14.1c0,2,0,4,0,6.2c1,0.8,2.1,1.8,3.2,2.7   c1.7-1.7,3.5-2.9,4.4-4.6c1.4-2.8,3.5-5.2,5.9-6.4c2.8-1.5,4.4-4.1,7.1-5.7c3.1-1.9,6.4-3.1,9.6-4.7c3.9-1.9,8.1-2.7,12.3-2.9   c4.2-0.3,8.4-0.1,12.5,0c1,0,2,0,2.9,0.3c3.2,0.9,6.2,2.1,9.4,2.7c8.1,1.3,14.5,5.8,20.7,10.5c3.3,2.5,6.3,5.6,8.8,8.9   c2.7,3.6,4.6,7.8,6.8,11.7c1.6,2.8,2.6,5.7,2.8,8.8c0.7,0.7,1.2,1.2,1.9,1.9c0,2.6-0.2,5.3,0.1,8c0.3,2.8-1.6,4.8-2,7.2   c-0.1,0.4,0.2,0.9,0.3,1.4c0.8,0,1.5,0,2.1,0c1.6-3.1,1.6-3.1,1.6-5.8c0-3.7,0.1-7.4-0.9-11.2c-0.6-2.6-0.8-5.1-1.9-7.8   c-1-2.5-2.2-4.8-3.5-7.1c-0.5-1-1.3-1.8-1.7-2.8c-3.2-6.7-7.5-12.6-13.8-16.8c-4.8-3.2-9.5-6.6-15.2-8.1c-1.9-2.2-4.8-1.3-7.1-2.1   c-4.5-1.7-9.2-2.3-14-2.6c-2.7-0.1-5.4-0.1-8,0c-3.4,0.2-6.8,0.5-10.1,1c-1.3,0.2-2.4,1.6-3.7,1.9c-8.3,1.8-13.9,7.9-20.4,12.5   c0.4,2.4-2.4,2.1-3.2,3.6c-0.8,1.5-2.2,2.7-2.8,3.4c-1-0.4-1.8-0.7-2.5-1c6.5-7.9,12.5-13.4,20.2-17.5c3.9-2.1,7.9-4.1,12.4-5.2   c4.6-1.1,9.1-0.9,13.7-0.8c4.5,0.1,9.2-1,13.6,0.9c0.4,0.2,1-0.1,1.5,0c3,0.8,6.3,0.8,8.9,3c0.9,0,1.9,0,3.1,0   c0.7,1.9,2.9,1.6,4.3,2.5c3.3,2.4,7.3,3.8,10.4,6.5c3.2,2.8,7.2,4.8,9.5,8.4c3.7,5.6,7.7,11.1,10.2,17.3c1.4,3.6,2.5,7.4,3.2,11.2   c0.7,3.6,1.6,7.1,0,10.7c-0.6,1.3,0.1,2.6,1.4,3.4c1.4-1.1,3.6-1.2,3.9-3.6c0.1-0.8,1.2-1.6,2.1-2.1c1.8-1.2,3.8-2.9,5.7-3   c2.6-0.1,4.3-2.2,6.7-2.2C429.5,332.7,431.2,331.1,432.5,329.8z M206.1,298.8c-2.1-5-3.8-9.7-7-13.6c-0.5-0.6-1.2-1.1-1.6-1.8   c-1.2-2.1-1.9-4.3-1-6.8c0.8-2.5,1.2-5.1,1.8-8c-1.4,0-2.5,0-3.4,0c-1-0.9-1.7-1.7-2.5-2.1c-5.4-2.7-10.9-5.2-16.7-6.9   c-1.5-0.4-3.2-0.4-4.7-0.8c-4.7-0.9-9.2-2.5-14.1-2.4c-5.9,0.1-11.7,0-17.6,0c-1,0-2.5-0.4-2.9,0.1c-1.8,2-4.3,0.3-6.4,1.7   c-1.8,1.2-4.7,0.7-7,1.2c-2.1,0.5-4.2,1.1-6.2,2c-4.7,2.3-9.9,3.7-14.2,7c-1.4,1.1-2.8,2-4.3,2.9c-1.6,1-3.3,1.8-4.8,2.9   c-1.4,1.1-2.7,2.5-3.9,3.9c-1.2,1.3-3,2-4,3.8c-0.8,1.4-3,2-3.9,3.4c-3.4,5.2-7.4,10.1-9.5,16.1c-1.9,5.4-4,10.7-3.7,16.6   c0.2,3.7-0.1,7.4,0.1,11c0.1,1.9,0.5,3.7,0.9,5.7c3,0.7,5.8,1.2,8.4,2.1c2.5,0.8,5.4,0.7,7.5,2.4c2.7,2,5.3,4.4,7.9,6.6   c0.5,0,1.2,0,1.9,0c-0.2-0.2-0.3-0.3-0.5-0.5c0.8-0.3,1.6-0.7,2.2-0.9c-1.5-3.3-2.7-6.1-2.3-9.2c0.4-3.3,0.9-6.7,1.3-9.8   c3.1-7.3,5.2-14.8,9.8-21.3c4.8-6.8,11-11.9,17.6-16.1c3.2-1.5,6.1-3,9-4.3c3.1-1.4,6.3-2.6,9.9-4.1c1.6-0.1,3.6,0,5.7-0.8   c3-1.1,6.3-1.4,9.6-1.2c3.5,0.2,7,0,10.5,0c0.8,0,1.8-0.3,2.5,0.1c4.6,2.6,10.2,2.5,14.7,5.8c4.2,3.1,9.2,5.2,12.6,9.4   c1.2,1.4,2.8,2,4.4,2.8c0.3,0.1,0.6,0.3,0.7,0.3c0.4,0.8,0.7,1.5,1.1,2.4c-0.5,0.4-1.3,1-2.2,1.8c-7.6-9.5-17.2-15.4-29-19.3   c-2.4-0.3-5.6-1.2-8.8-1.1c-2.9,0-5.7-0.7-8.7,0.7c-2.5,1.1-5.6,0.3-8.6,1c-5.3,1.3-10.5,2.6-15.5,5.1c-4.4,2.2-8.4,4.9-12.4,7.6   c-3.4,2.2-6.4,4.9-8.6,8c-4,5.6-9.9,14.5-11.5,25.3c-2,3.4-0.5,7-0.6,10.4c0.7-2.1,1.3-4.2,1.7-6.4c1.6-8.4,5.2-16,9.9-23   c2.8-4.2,5.7-8.3,10.1-11.4c4.3-3,13-8.6,18.3-10.5c3.5-1.3,7.2-2.3,10.8-2.8c4-0.6,7.9-1.7,12.1-1.3c2.4,0.3,4.8,0.9,7.1,0.9   c5.3,0.1,10.1,1.8,14.3,4.3c5.1,3.2,10.6,6.2,14.5,11.1c1.5,1.8,3.2,3.3,4.7,4.7C205.8,304.2,204.5,300.2,206.1,298.8z    M430.8,400.9c-2.5,0.2-4,2.2-6.4,2.2c-3.7-0.1-7.4,0.6-11.1,0.9c-0.3,0-0.7,0-0.9,0.2c-3.7,2.3-8.5,0.8-12,3.8c-0.3,0.2-1,0-1.5,0   c-1.3,0-2.4,0.3-3.7,0.9c-2.2,1.1-4.8,1.2-7.1,2.2c-4.1,1.7-8.5,2.7-12.6,4.7c-6.7,3.3-13.4,6.6-19.8,10.3c-4.2,2.4-8.9,3.6-13,6.1   c-5,3-10.9,3.6-15.7,7c-3.9,0.3-6.9,3.1-10.4,3.9c-5.4,1.2-9.8,5-15.5,5.1c-1.9,2.6-5,2.6-7.6,3.4c-4.3,1.4-8.3,3.8-13.1,3.6   c-2.2,2.2-5.5-0.2-7.7,2c-5.4,0.6-10.7,2-16.2,2.1c-1.9,0-3.8-0.7-5.7,0.8c-0.8,0.7-3.1,0.7-3.8,0c-1.6-1.4-3.2-0.6-4.7-0.9   c-1.7-0.3-3.4-0.9-5.1-1c-3.4-0.2-6.8,0.1-10.1-1c-3.3-1.1-6.8-1.2-10.2-2c-7.1-1.7-14.1-3.9-20.8-6.7c-3.7-1.5-7.5-2.8-11.3-4.3   c-5.8-2.2-11.5-4.6-17.4-6.6c-6.7-2.2-12.9-6.1-19.5-8.7c-4.4-1.8-8.6-4.3-12.9-6.4c-7-3.3-13.5-7.6-21-10   c-5.2-1.6-10.1-4.2-15.6-4.7c-2.6-2-6-1.8-8.9-2.6c-4.7-1.3-9.5-2.7-14.6-2.4c-1.3,0.1-2.7,0-4,0c-0.3,0-0.6-0.1-0.9-0.2   c-0.6-0.6-1.2-1.2-1.8-1.8c-0.7,0-1.3,0-2,0c-0.5,0.5-0.9,0.9-1.4,1.4c1,2.9,3.1,5.2,5.9,5.5c3.4,0.4,6.6,1.8,10.1,1.2   c0.8-0.2,1.8-0.3,2.5,0.1c3.9,2,8,2,12,1.9c1.9,1.9,4.3,1.7,6.3,2.4c3.8,1.4,7.3,3.4,11.1,4.6c4.1,1.2,7.8,3.1,11.6,4.7   c4,1.7,7.8,3.8,11.9,5.3c2.8,1,5.2,2.9,8,3.7c2.9,0.8,5.3,2.6,8.1,3.6c3,1,5.6,3.3,8.7,4.5c7,2.8,13.9,6,20.9,8.8   c7,2.9,14,5.9,21.4,7.7c2.5,0.6,5,1.7,7.5,2.5c1.5,0.9,3.3,0.2,5.1,1.2c1.3,0.7,3.3,1.1,5,1.2c4.4,0.1,8.3,2.8,12.7,2.1   c5.1,1.8,10.4,1.9,15.7,2.1c4.8,0.2,9.4-1.2,14.1-1.1c1.7-1.8,4-0.6,6-1.3c2-0.8,4.2-1.2,6.3-1.7c2-0.4,4.6-0.1,6-1.2   c2-1.6,4.8,0.4,6.3-1.8c3.7-0.2,6.9-2,10.3-3.1c6.5-2.1,13-4.2,19.1-7.2c3.5-1.7,7.2-2.8,10.6-4.7c3.2-1.8,6.9-2.6,10.3-4.2   c6-2.8,11.9-6,17.9-8.8c6.6-3,13-6.5,19.8-9.2c2-0.8,3.9-2,6-2.5c3.4-0.8,6.4-2.5,9.6-3.4c6-1.7,11.8-4.9,18.4-4.1   c0.2,0,0.4,0.1,0.5,0c1.8-2,4.4-0.1,6-1.1c2.1-1.5,4.2-0.7,6.2-0.8c3.4-0.2,6.3-0.9,8.2-3.3C430.8,403.9,430.8,402.4,430.8,400.9z    M288,396.9c3.2-3.1,7.7-3.4,11.6-4.8c9-3.3,17.8-7.2,26.5-11.1c6.1-2.7,12.5-4.7,17.9-8.9c0.3-0.3,0.9-0.1,1.4-0.2   c2.2-0.7,4.6-1.1,6.7-2c3.4-1.5,6.6-3.6,10.1-4.7c2-0.6,3.7-1.9,5.6-2.2c4.5-0.7,8.5-3,12.8-4.3c2.8-0.8,5.5-2,8.4-2.7   c3.8-0.9,7.8-1,11.4-2.9c1.2-0.6,2.7-1.2,4-1.1c5.3,0.2,10.4-1.7,15.7-1.1c2.5,0.3,5,0,7.5,0c0.8-0.8,1.7-1.7,2.4-2.4   c0-1.5,0-3,0-4.6c-0.8,0-1.6-0.2-2.1,0c-3.4,2-7,2.1-10.7,2c-3.4-0.1-6.8-0.4-10.1,1c-1.1,0.5-2.4,0.8-3.6,1c-1.4,0.2-3-0.3-4.1,1   c-3-0.4-5.4,1.8-8.2,2c-3.6,0.1-6.8,1.3-10,2.5c-4.6,1.7-9.7,2.5-13.7,5.6c-8.8,2-16.7,6.5-24.9,10.1c-1.1,0.5-2.1,1.8-3.2,1.9   c-3.6,0.4-6.3,2.7-9.4,4.1c-3.2,1.5-6.8,2-9.9,3.9c-2.9,1.7-6.2,2.9-9.3,4.1c-4.4,1.6-8.7,3.3-12.9,5.1c-8.1,3.5-11.3,4.5-20.1,6.1   c-1.9,0.3-3.9,0.3-5.6,1c-4.8,2-10,2.4-14.9,2.7c-7,0.4-14.1,0.8-21.2-0.6c-4-0.8-8.2-0.9-12.2-2.2c-4.5-1.4-9.1-2.3-13.5-3.7   c-5.8-1.7-11.3-4.1-17-6.3c-5.5-2.1-11-4.3-16.3-6.8c-1-0.5-1.9-1.1-3-1.3c-5.3-1.4-9.6-5.2-14.9-6.5c-4.2-3.7-10.1-4.1-14.5-7.5   c-2.9-0.2-5.1-2.2-7.7-3.2c-3.2-1.1-6.7-1.8-9.6-3.3c-3.2-1.7-6.8-1.9-10.1-3.5c-3.4-1.6-7.4-2.8-11.6-2.3c-2.3,0.3-5.1,0.1-7-1   c-3.9-2.2-8.4-2.4-12.3-4.2c-2.6-1.2-4.6-0.5-6.6,0.3c-2.7-2-5.6-0.5-7.8-1c-1.8-0.9-3.2-1.5-4.9-2.4c0,2,0,3.6,0,5.2   c2.4,1.5,4.9,2.2,7.7,2.2c2.1,0,4.3-0.6,6.2,1c0.7-0.3,1.4-1,2-1c1.2,0.1,2.4,0.7,3.6,0.9c1.4,0.3,2.9,0.3,4.3,0.5   c3.4,0.5,6.5,2.4,10,2.5c1.7,2.1,4.2,0.8,6.4,1.6c9.1,3.4,18.5,6.3,27.7,9.5c3.1,1.1,5.8,3.1,9.1,3.4c2.5,2.7,6.7,1.9,9.1,4.6   c5.9,1.6,10.6,5.8,16.6,7.1c9.1,5.1,18.5,9.3,28.5,12.4c4.6,1.4,9,3.3,13.7,4.5c4.7,1.2,9.3,2.8,14.2,3.5c2.4,0.3,4.7,1.9,7.3,1.7   c2.8-0.2,5.2,1.3,8.1,1.1c6.7-0.6,13.4,0.4,20.2-0.9c4.3-0.8,8.7-1.3,13-2.7c0.6-0.2,1.3-0.5,1.8-0.4c2.2,0.6,4.3-0.5,6.1-1.2   C284.3,397,286.1,397.1,288,396.9z M444.1,233.8c3-2.8,5-6.1,7.4-9.1c2.3-2.8,3.8-6.3,7.5-8c2.6-1.2,4.6-3.5,6.7-5.6   c1.3-1.3,2.2-3.1,3.5-4.9c1.1-3.4,2.3-7.1,3.6-11.2c3.4-2.8,6-7.3,10.7-9.1c0.6,0.4,1,0.7,1.5,1.1c0.7-1.9,0.1-3.1-0.7-3.6   c-1.6,0.3-2.7,0.4-3.7,0.6c-1.2,0.3-2.4,0.9-3.6,0.9c-1.6,0-2.8,0.5-3.9,1.6c-1.1,1.1-3,1.7-3.7,2.9c-2,3.8-5.1,5.9-9.1,7.1   c-1.4,0.4-3,0.6-4.2,2c-1.7,1.9-4,3.2-5.1,4c-1.9,4.7-3.2,8.4-4.9,11.9c-2.1,4.4-4.6,8.7-4,13.9c0.1,0.5,0.1,1-0.1,1.5   c-1.8,4.4-3.6,8.8-5.5,13.3c0.3,0.9,0.7,2.1,1,3.2c1.1,0,2.1,0,3.1,0c1-1.4,4-1,3.4-4c-1.2,0-2.2-0.1-3.1,0   c-0.9,0.1-1.8,0.5-3.1,0.8c0.4-0.9,0.5-1.6,0.8-1.7c3.5-1.9,7.4-2.5,11.2-3.1c1.2-0.2,2.5-0.4,3.7-0.7c5.4-1.2,10.1-4,14.9-6.5   c4.5-2.3,8.7-5.1,10.6-10.2c0.3-0.9,0.8-1.7,1.2-2.7c0-2.5-0.4-5.4,1.7-7.3c0.5-4.1,0.9-8,1.3-11.8c2-1.8,0.2-4.7,1.9-6.8   c0.7-0.9,0.1-2.8,0.1-5c-3,2.4-5.6,4-7.7,6.1c-2,2-4.2,9-4.3,11.9c-0.8,1.2-1.4,2.1-2,3c-1.9,2.6-3.3,5.8-6.2,7.4   c-4.5,2.5-7.2,6.7-10.8,10c-0.5,0.5-0.6,1.5-1.1,2c-2.4,2.5-3.7,6.2-7.3,7.7C445.3,234.9,444.8,234.5,444.1,233.8z M57.6,233.8   c-0.2-2.2,0-4.3-0.9-6.6c-0.8-1.9-0.3-4.3-1.1-6.6c-1.2-3.4-2-6.9-4.1-9.8c-1.8-2.5-2.7-5.2-3.1-8.1c-3.5-4.3-7.8-7.1-13-8.7   c-1.9-0.6-3.9-2-4.9-3.6c-1.8-3.1-4.2-5.1-7.4-6.4c-3.1-1.2-6.2-2.3-9.3-2c-0.6,0.6-1,1-1,1c0.2,1.8,0.4,3.3,0.5,4.9   c0.1,1.6-0.1,3.4,0.3,4.9c1.4,4.5,1.9,9.3,2.6,13.9c0.8,4.8,2,9.5,4,13.9c0.5,1,1.1,1.9,1.8,2.8c4,6,10.9,7.4,16.6,10.8   c2,1.2,4.3,1.8,6.4,2.6c1.7,0.5,3.5,0.3,5.3,0.5c4.3,0.5,8.6,1,11.5,4.8c0,0,0.4-0.2,0.9-0.5C61,239,59.3,236.4,57.6,233.8z    M154.7,209.5c-2.6-1.8-3.9-5.9-6.2-9.3c-0.3-0.4-0.6-0.9-0.5-1.3c0.4-4.3-0.5-8.4-1.1-12.6c-0.5-3.3,0.9-6.4,1-9.6   c0.1-3.7,0-7.2,1.8-10.8c1.5-3,2.6-6.1,5.1-8.4c0.9-0.8,1.6-1.9,2.7-3c-3.1-0.5-3.1-0.4-5,0.3c-1.1,0.5-2.3,0.8-3.5,1.1   c-3,0.7-5.9,2-8.7,3.3c-1.9,0.9-2.4,3.2-2.5,5.4c0,0.1-0.2,0.2-0.3,0.4c-2.6,3.9-3.6,8.5-5.6,12.7c-1.6,3.4-1.7,7.3-2.9,10.8   c-1,2.8-1,5.8-2,8.7c-1.3,3.5,1.4,6.4,2.1,9.6c0.8,3.2,2.6,6.1,5.2,8.3c2.1,1.8,4.2,3.5,6.1,5.1c2.3,0,4.3,0,6.2,0   c3.3-4.1,5.8-6,12.2-6c0.5-0.7,1-1.5,1.7-2.5C158.6,211,157.1,210.4,154.7,209.5z M78.9,32.6c-2.8,4.6-7.6,8.2-6.2,14.3   c-3,3.3-1.5,7.9-4,11.1c0,3.3,0,6.7,0,9.8c0.9,1.4,1.7,2.9,2.7,4c1.1,1.1,2.5,2,3.8,2.9c3,2,5.9,4.3,9.1,5.9   c2.5,1.2,5.2,2.9,8.5,1.7c-1.4-2.3-2.8-4.4-4.1-6.5c-1.5-2.4-2.4-5-3.3-7.7c-0.9-2.8-1.9-5.4-1.8-8.3c0-0.9-0.5-1.8-0.9-2.6   c-1.5-3.7-3.7-7.2-4-11.4c0.7-0.4,1.5-0.9,2.6-1.6c0.5,2.4,0.7,4.4,1.3,6.4c0.6,1.9,3,3.2,1.6,5.9c0.9,0.6,1.7,1.2,2.4,1.6   c-0.8,6.6,5,19.5,8.6,23.5c0.4-0.4,0.9-0.6,1-1.1c1.2-3.5,2.5-6.9,4.2-10.3c1.3-2.8,1.1-6.2,2.2-9.1c-1.3-1.8-0.9-4-1-5.9   c-1.2-1.9-1.9-4.1-3.4-5.3c-2-1.6-3.3-3.7-5.2-5.4c-1.9-1.8-3.6-3.6-4.6-6.1c-1.1-2.6-3.3-4.5-5.5-5.8   C81.5,32.6,80.2,32.6,78.9,32.6z M420.1,45.6c-0.1,1.3,0.1,2.4-0.2,3.5c-1.3,4.3-4.2,8.1-3.9,13c0,0.1-0.2,0.2-0.3,0.4   c-2.3,2.2-1.5,5.1-1.7,7.7c-2.7,4.5-5.4,8.8-7.3,12.1c0.4,1.3,0.5,2,0.5,2c2-0.6,3.7-0.8,5.2-1.6c4.6-2.3,9-5.1,13.2-8   c2.9-2.1,4.2-5.2,5.3-8.4c0.9-2.4-0.8-4.6-1.5-6.8c0-0.1-0.3-0.2-0.3-0.4c0.4-5.1-2.6-9.4-3.2-14.3c-0.4-2.8-1.6-5.6-3.8-8   c-1.5-1.6-3.2-2.8-4.7-4.2c-1.8,1.4-3.1,3.2-5.2,4.3c-2.1,1.1-3.4,3.4-3.3,6.2c-2.3,1.9-4.2,4.4-6.9,6.1c-2.1,1.3-3.3,3.6-4.2,6.2   c-2,5.3-0.2,10.1,0.6,15.1c0.5,3.6,3.3,6.3,4,9.9c0.1,0.6,1.4,0.9,1.8,1.2c1.1-2.1,1.7-4.1,3-5.6c3-3.4,3.9-7.7,4.6-11.6   c0.8-4.6,2.8-8.6,4.1-13c0.5-1.9,1.2-3.8,1.3-5.8C418.2,45.6,419,45.6,420.1,45.6z M357.1,32.6c-2.1,4.9-1.9,5.7,1.5,9.3   c0.5,0.5,0.9,0.9,1.4,1.4c1.6,1.6,2.9,3.3,3.8,5.4c1.8,4.1,3.6,8.2,5.1,12.4c1.6,4.6,5.5,7.6,8.8,10.9c1.5,1.5,3.4,2.1,5.4,2.7   c2.6,0.8,6.1,1,7.1,4.6c0.2,0.6,1.4,1,2.5,1.7c0-2.3,0-4.1,0-5.4c-2.4-6.6-6.4-11.4-11.1-15.9c-0.9-0.9-1.3-2.5-1.8-3.7   c-1-2.3-1.5-4.9-3-6.7c-1.5-1.9-4-3-5.9-4.2c0-0.9,0-1.7,0-2.4c1,0,1.8,0,2.2,0c1.9,1.7,3.6,3.2,5.6,5c1.3,2.7,2.9,5.9,4.6,9   c0.7,1.2,1.5,2.5,2.5,3.5c4.3,4,7.3,8.7,8.2,14.7c0.7-0.1,1.2-0.2,1.7-0.3c0-1.6,0.1-3.1,0-4.6c-0.1-0.9-0.6-1.7-1-2.6   c-1.7-4.7-1.7-9.4,1-13.8c1-1.5,1.1-3,0.9-4.1c-5-7.1-12.5-10.2-19.5-13.9C370.6,34.6,364.1,31.5,357.1,32.6z M55,76.6   c-0.6,0.6-0.9,1.1-1.4,1.3c-4.5,2.6-8.9,5.3-13,8.6c-3.2,2.6-6.1,5.6-8.9,8.5c-1.4,1.5-1.8,3.9-2.5,5.4c1.6,1.6,2.7,3.7,4.4,4   c2.2,0.5,5.1,0.6,7.9-0.6c1.4-0.6,3.9-1.1,5.5,0.8c3,0,6,0,8.4,0c7.3-3.9,14.2-7.5,20.9-11c1.9,0,3.6-0.1,5.2,0   c1.5,0.2,3,0.7,4.8,1.2c3.3,3.3,8.6,6.3,11.7,6.5c-0.5-0.8-0.7-1.6-1.3-2.1c-2.7-2.4-5.5-4.6-8-7.1c-2.7-2.6-5.7-4.6-9.1-5.9   c-5.4-2.2-10.8-2.8-16,0.5c-1.6,1-3,2.5-4.4,3.7c-1,0.3-1.9,0.5-2.7,0.9c-3.3,1.6-6.6,3.3-10,4.9c-0.8,0.4-1.9,0.3-3.4,0.4   c1.3-3.3,3.9-3.9,6.1-4.9c3.7-1.7,7.7-2.7,10.6-5.8c2.8-3,6.3-4.2,10.3-4.2c2.1,0,4.3,0,6.4,0C69.8,77.7,62.6,76.5,55,76.6z    M454.6,98.8c-2.8-1.6-5-3.2-7.4-4.1c-3.9-1.4-7.6-3-10.6-6c-0.9-0.9-2-1.7-3.1-2c-2.6-0.7-5.4-1.9-8-1c-3.2,1.2-6.9,0.8-9.6,3.5   c-1.8,1.7-4.1,3-6.1,4.5c-2.9,2.2-5.8,4.4-8.5,6.4c0,0.9,0,1.7,0,3.1c5.1-3,9.7-5.7,14.5-8.5c2.2,0,4.6,0,6.9,0   c4.1,1.5,7.6,4.2,11.5,6c2.5,1.2,4.9,2.8,7.4,4c3.9,1.8,8,0.9,12.1,1c1,0,2-0.7,2.3-0.8c4,1.5,7.5,0.5,10.6,0.8   c1.4-1.3,2.6-2.4,3.6-3.4c-1.9-3.8-3.9-7.5-7-10.3c-5.2-4.7-10.7-9-16.9-12.4c-2.2-1.2-4.4-2.3-7.2-2.1c-5.2,0.4-10.1,2.2-15.1,3.5   c0.2,0.7,0.3,1.1,0.5,1.6c1.1,0,2.1,0.1,3.1,0c3.9-0.6,7.4,1,10.1,3.2c3.1,2.6,6.6,4.2,10.1,5.9c2.9,1.4,5.7,3,8.8,4.7   C455.8,97.4,455.2,98.1,454.6,98.8z M139,46.7c-0.6,0.7-1.8,1.6-2.1,2.8c-1.5,4.9-4,9.4-6,14.1c-2.4,5.3-6.4,8.8-11.2,11.7   c0,1.7,0,3.4,0,5c-0.6,0.6-1.2,1.1-1.7,1.6c-1-0.5-1.7-0.9-2.7-1.5c-0.9,1.6-1.8,3.2-3,5.1c1.5,0,2.4,0,3.3,0   c0.2-0.7,0.4-1.3,0.6-1.8c1.5,0,2.8,0,3.8,0c2.4-1.9,4.5-3.6,6.3-5c2.9,0,5.2,0,7.5,0c4,0.1,7.7-1.5,10.3-4c4.3-4,9-7.7,12.2-12.9   c1-1.6,2.6-3.3,4.3-4.1c3.3-1.6,5.8-4.1,8.3-6.5c0-1.5,0-3,0-4.3c-0.5-0.5-0.8-0.8-1.3-1.3c-2.9-0.4-6,0.3-9-1   c-1.6-0.7-3.7,0.1-5.6,0.7c-2.1,0.7-4.6,0-7,0.2C143.8,45.7,141.6,46.3,139,46.7z M332,54.6c0.5,0,1-0.1,1.2,0   c4,3.6,8.3,7,11.9,11.1c2.6,2.9,5.4,5.7,7.9,8.8c3.1,3.8,7.8,4.9,12.4,5.2c2.7,0.2,5.3,0,8,0c1.8,1.8,3.4,3.8,6.6,4   c-0.5-2.7-0.9-5.2-1.4-7.8c-0.1-0.1-0.3-0.4-0.6-0.5c-5.7-3-9.2-7.9-11.5-13.6c-1-2.4-1.7-5-2.6-7.5c-2-5.4-4.8-7.7-10.1-7.7   c-2.8,0-5.7,0-8.5,0c-1.5,0-2.7-2-4-0.9c-1.4,1.2-2.8,0.7-4.2,0.8c-2,0.1-4,0-5.6,0c-0.8,0.6-1.3,1.1-2.1,1.7   C330.1,50.2,331,52.2,332,54.6z M432.1,340.3c0,2.9-0.1,6,0,9c0.1,1.7-0.3,3.4,0.8,5.2c0.9,1.5-0.4,4.2,0.4,5.8c1,2,0.7,3.4,0,5.3   c-0.5,1.4,0.8,3.3,0.8,5c0,1.9-1.4,4.1-0.7,5.5c0.8,1.8,0.5,3.5,0.8,5.2c0.2,0.9,0.7,1.7,1,2.4c4,0.4,7.6,0.3,11-1.8   c3.7-2.4,7.1-7.8,5.9-11.2c-0.8-2.3-0.8-4.4-0.8-6.7c-0.1-8.2,0-16.4,0-24.6c0-1.3,0-2.5,0-4.1c-2.4,0.4-4.3,0.7-6.6,1   c-0.3-0.1-1.2-0.6-2.1-0.7c-2.2-0.2-4.5,0.2-6.6-1c-1.2-0.6-2.8,0.3-4.2-0.8c-0.6-0.4-2.4,0.8-3.8,1.4   C428.8,337.5,430.7,338.6,432.1,340.3z M66.6,335.2c-1-0.5-1.9-1-2.5-1.3c-3.2,0.6-6.1,1.5-9.1,1.7c-3.1,0.3-6.3,0.1-9.5,0.1   c0,10.1,0,19.7,0,29.4c0,1.1,0.3,2.5-0.3,3.4c-1.9,2.9-0.2,5.6,0.3,8.3c0.6,3.2,3.1,4.5,5.8,5.4c0.3,0.1,0.5,0.4,0.7,0.6   c3.4,0,6.7,0,10,0c0.5-1,1-2,1.5-2.9c-1.5-3.8-1.5-7.5-0.4-10.3c-0.3-2.6-1.1-4.6-0.5-5.9c1.1-2.3,0.8-4.5,0.8-6.7   c0.1-5,0-10,0-14.7c1.1-1.7,2.1-3.1,3-4.5C66.6,336.9,66.6,336,66.6,335.2z M398.9,343.2c0-1.6,0-3.1,0-4.6c0-1.6-0.4-3.2,0.9-4.7   c0.3-0.3-0.2-1.5-0.4-2.2c-1.1-4-3.4-7.6-4.7-11.6c-0.5-1.7-2.1-3.1-3.3-4.8c-4.5,6.4-8.5,12.7-14.4,17.5c-1.1,0.9-0.6,2.8-2.7,3   c-1,0.1-1.9,1.7-2.9,2.7c-1.1,1.1-2.1,2.2-3.2,3.2c-3.1,2.9-6.3,5.7-9.5,8.5c-1.9,1.6-4,3.1-6.1,4.6c-4.3,2.9-8.7,5.7-13,8.6   c-0.8,0.5-1.7,1.2-2,2.7c6.6-2.1,12.1-5.2,17.9-7.8c5.4-2.4,10.8-4.5,16.3-6.7c6-2.4,12.3-3.5,18.5-5   C393.2,345.9,396.5,346,398.9,343.2z M469.8,368.8c0.7-0.7,1.1-1.2,1.5-1.7c-0.8-1.6-1.1-3.4-3.1-3.8c0.7-0.7,1.3-1.4,2.3-2.4   c-0.4-3.5-1-7.2-1.2-10.9c-0.2-4,0-8,0-12c0-3.8,0-7.7,0-11.5c0-1.3,0-2.5,0-3.8c-3.2,0-6.2,0.8-8.5-0.2c-3.3-1.3-6.4-0.4-10.2-1   c1.5,2.4,2.5,4.1,3.2,5.2c-0.2,1.6-0.6,2.6-0.5,3.7c0.2,3.2,0.8,6.4,0.9,9.6c0.2,3.3,0,6.7,0,10c0,3.8,0,7.6,0,11.3   c0.8,0.8,1.4,1.4,2,2c-0.7,0.7-1.3,1.4-1.8,1.9c0,1.4,0,2.5,0,3.7C459.6,368.8,464.6,368.8,469.8,368.8z M465.5,303.8   c1.2-1.2,2.1-2.2,3.1-3.1c3.7-3.3,5.2-7.9,6.3-12.4c0.7-2.8,0.6-5.6-0.5-8.5c-0.8-2.3-1.6-4.8-2.1-7.2c-1-5.5-3.9-9.3-8.7-12.1   c-4.6,0.5-8.6-1.9-12.6-3.9c-3-1.5-6.3-0.3-9.2-2.1c-0.9-0.5-2.5-0.5-3.4,0c-2,1.1-4.2,0.4-6.1,1c-2.4,0.9-5.5,1-7.7,4.2   c3.9-0.6,7.3-0.3,10.1-1.6c4.1-1.9,7,0.2,9.5,2.1c4.3,3.4,7.6,7.7,9,13.3c0.3,1.3,1.2,2.6,2.1,3.6c3.5,3.5,4.5,4.9,5.9,9   c0.3,1,0.5,2.3,1.2,3c2.2,2,3.4,4.5,4.6,6.7C466.3,298.4,464.6,300.6,465.5,303.8z M32.3,292.9c2.2-3.1,4.7-5,5-7.2   c0.6-4.4,3.2-7.1,5.7-10.2c0.7-0.9,1.4-1.8,1.7-2.8c1-3,2.7-5.6,4.3-8.3c2.8-5,10.3-9.1,15.7-8c3,0.6,5.8,1.8,8.8,2.7   c0-0.8,0-1.6,0-2.5c-4.3-1.9-9-2.7-13.6-3.2c-5.3-0.6-10.2,1.6-15.2,3.2c-3.6,1.2-6.8,3.6-9.7,2.9c-4.6,0.7-6.2,3.8-7.3,6.3   c-2.7,6.2-4.2,12.9-4.3,19.8c0,0.6,0.3,1.2,0.4,1.8c0.6,2.1,1.1,4.2,1.8,6.8c2.5,1.9,3.9,5.6,7.7,7.9   C32.9,298.4,32.6,295.3,32.3,292.9z M77.1,104.9c-1.6,0.3-2.9,0.6-4.3,0.8c-1.1,0.2-2.2,0.3-3.3,0.6c-4,1-7.4,3.2-11,4.9   c-2.8,1.4-5.7,2.4-9,2.6c-3.1,0.2-6.1,1.3-8.4,3.8c-2.4,2.5-4.9,4.9-7.3,7.3c-1-0.2-1.7-0.4-3-0.6c3.4-4.1,6.9-7.4,10.4-10.6   c0.3-0.3,0.8-0.4,1.3-0.5c3.8-1.1,7.3-3.2,11.2-2.5c3.9-2.1,7.4-4.5,11.3-5.9c3.5-1.3,7.1-3,11.1-2.2c0.4,0.1,0.9-0.2,1.3-0.3   c0.3-2.7-2.2-2.7-3.4-3.5c-0.8-0.5-2.6-0.1-3.6,0.4c-3.1,1.7-6.5,3-9.3,5.3c-0.8,0.6-1.4,1.3-2.6,1.1c-1-0.2-1.8,0.3-2.6,0.9   c-1.9,1.4-4.6,1.7-6.5,0.9c-3-1.3-5.8-0.4-8.5-0.9c-1.7,1.7-3.2,3.2-4.8,4.8c-1.4,1.4-2.3,2.9-2.9,4.8c-0.6,1.9-2,3.5-2.9,5.3   c-0.8,1.8-1.4,3.8-2.1,5.7c0.5,0.5,1,0.9,1.7,1.5c3.6,0.5,6.9-1,10.4-3.1c3.7,0.4,7.7,0.9,11.4,1.3c1.8-1.7,3.5-2.3,5.6-2.3   c1.2,0,2.6-0.3,3.6-1c2-1.3,3.8-3,5.7-4.5c4.4-3.5,7.1-8.9,12-12c0.2-0.1,0.1-0.6,0.1-1.1C78.2,105.8,77.7,105.4,77.1,104.9z    M465.9,126.3c-2.9-1.6-4.6-3.9-6.5-5.9c-3.5-3.5-7.8-5.3-12.7-5.6c-0.9-0.1-1.9-0.4-2.7-0.6c-3-0.6-5.5-2.4-8-3.6   c-4.5-2.2-9-4.2-14.4-4.9c-0.3,0.4-0.8,1-1.3,1.6c2.5,2.5,5.3,4.7,7.3,7.5c1.4,2,2.9,3.9,4.8,5.5c2.1,1.9,4.5,3.6,7,4.9   c1.7,0.9,4,0.9,5.8,1.6c1.7,0.7,3.4,1.1,5.1,0.9c2.9-0.3,5.7-0.7,7.3-0.9c4.3,1.6,7.4,2.8,10.2,3.8c1.1-0.6,1.9-1,3-1.6   c-2.8-7.3-6.4-14-11-20.3c-1.5-0.3-3.1-2.4-4.9-0.1c-3.2-0.4-6.4,0.3-9.8-0.5c-3.7-0.9-7-2.6-10.2-4.4c-2.7-1.5-5.5-2.9-8.3-4.4   c-1.6,1.3-4.2,1.1-4.4,4.3c5.5-0.8,10.1,1.6,14.3,4.1c4.6,2.7,9.5,3.8,14.5,4.9c3.6,0.8,6.8,2.4,9.5,4.8c2.1,1.9,4,4,5.9,5.9   C466.2,124.4,466,125.1,465.9,126.3z M153.5,362.9c0.2-0.3,0.5-0.6,0.7-0.9c-0.7-0.7-1.4-1.5-2.3-2.1c-1-0.7-2.3-1-3.3-1.8   c-3.8-3.3-8.5-5.4-11.6-9.5c-0.2-0.3-0.4-0.6-0.7-0.7c-2.7-0.8-3.9-3.4-6-5c-2-1.6-4.4-3-5.9-5c-1.2-1.6-2.8-2.3-4-3.7   c-1.3-1.6-2.5-3.3-3.9-4.9c-2.3-2.6-5.1-4.6-6.8-7.7c-0.5-0.9-1.6-1.4-2.7-2.2c-0.8,2.2-1.5,3.9-2.2,5.6c-1.6,3.9-2.3,8.1-3.2,12.2   c-0.4,1.9,0.5,4,0.8,6.1c2.8,3.6,6.8,3.8,10.4,3.6c1.4,0.9,2.3,1.9,3.3,1.9c4.5,0.1,8.2,3.5,12.8,3.1c5,2.7,10.5,4.5,15.6,7.3   C147.5,360.5,150.6,361.6,153.5,362.9z M26.1,323.4c2.1,3.7,1.2,8,1.3,12.3c0.1,4.2,0.2,8.4,0,12.5c-0.2,4-0.8,8.1-1.2,11.7   c1.3,1.7,2.5,2.5,4,1.5c1.9-1.2,4.3-1.2,5.6-0.4c1.9,1,3.5,0.5,5.1,0.8c0.6-0.6,1-1,1.5-1.5c0-5.9-0.1-11.7,0-17.6   c0.2-5.7,0.6-11.4,1-17.2c0.1-1,0.4-1.9,0.6-2.8c-0.3-0.3-0.6-0.8-0.8-0.8c-5.1,0-10.3,0-15.7,0C27.4,322.1,26.9,322.6,26.1,323.4z    M75.1,268.4c-0.3,0.3-0.7,1-1.1,0.9c-1.9-0.1-3.7,0.6-4.7,1.9c-1.1,1.5-3,2-4.1,3.6c-1.6,2.4-3.4,4.4-4.2,7.3   c-1.1,4.3-4.8,6.8-7.6,9.7c0.1,5-2.9,8.1-6,11c-0.3,2.5,0,4.6,1.2,6.3c1.3,0.4,2.3,0.8,3.6,1.2c2.8,0.4,6,0.8,8.7,1.2   c0.7-0.7,1.1-1.1,1.5-1.5c-1.2-6.6,3.5-11.8,5.4-18.7c4.7-5.4,10-11.5,15.4-17.8c0-0.8,0-1.9,0-3.1   C80.7,269.8,78.1,269.2,75.1,268.4z M442.3,263.4c-0.8,0-2.3,0.4-3.1-0.1c-4-2.4-8.8,0.7-12.7-1.9c-2.7,1.3-5.8,1.3-8.7,2   c-1.7,0.4-3.2,1.7-5.1,2.7c0.8,0.9,1.4,1.7,1.9,2.2c2.5-1,4.4-1.9,6.5-2.5c4.2-1.2,8.2-0.9,11.8,1.8c3,2.2,7.1,7.4,8.1,11.6   c0.7,2.7,1.5,4.5,4.1,5.8c2.6,1.4,3.5,4.4,5,7.2c0,1,0,2.3,0,3.8c1.1,1,2.4,2.1,3.5,3.4c1,1.2,1.8,2.5,2.6,3.7   c-0.8,1.8-1.5,3.4-2,4.9c-0.1,0.4,0.1,0.9,0.2,1.4c0.8,0,1.4,0,2.2,0c4.8-4.7,6.7-9.1,6.5-15.6c-2.9-2.7-5.1-5.8-5-10.1   c-4-3-6.8-7.2-8.7-11.8C447.9,268.4,446.4,265.2,442.3,263.4z M72.9,260.6c-2,1.6-4.5,0.5-6.9,0.7c-2.2,0.2-4.4,0-6.6,0.9   c-2.1,0.9-4.6,0.9-6.8,1.2c-0.8,1.4-1.6,2.5-2.1,3.6c-1.9,4.9-4.1,9.6-8.3,13.2c-1,0.8-1.3,2.4-1.8,3.7c-1.2,3.3-1.8,6.8-4.8,8.7   c-0.7,3.3,0,6.3,1.1,9.8c1.9,1.8,4.2,3.9,6.5,6c0.1,0.1,0.3,0,0.8,0c1.4-2.8-2.1-4.7-1.7-7.3c1.6-2,3.1-4,4.8-6   c2-2.3,1.2-5.5,2.9-8.1c0.8-0.5,2.1-0.8,2.6-1.6c1.7-2.8,3.9-5.3,4.8-8.5c0.3-1.2,0.6-2.5,1.4-3.4c2.9-3.8,5.9-7.5,10.9-9.2   c2.6,0,5.6-0.5,8.2,0.1c2.5,0.6,4.7,2.4,8,1.6c-0.6-1-1.1-1.8-1.3-2.2C80.5,262.7,76.8,261.7,72.9,260.6z M432.1,156.5   c-0.7,6.1,1.8,12,2.5,17.9c0.6,2.1,1.3,4.1,2.1,6.9c0.5,0.2,1.7,0.6,2.9,1c3-3.5,3-7.7,3.5-11.5c0.6-5.4-0.2-10.8-0.9-16.1   c-0.3-1.9,0.4-3.8-0.9-5.7c-0.4-0.5,0.4-1.9,0.6-2.9c-0.6-0.9-1.6-1.8-1.7-2.8c-0.4-4.6-3.5-7.5-6.5-10.4c-1.9-1.8-3.9-3.4-6-4.9   c-0.4-0.3-1.1,0-2.1,0c1.6,3.3,3.2,6,5.3,8.4c2.5,2.8,8.4,19.1,9.1,23.2c0.5,2.7,1.7,5.2,0.8,8.1c-0.4,0.4-0.8,0.8-1.3,1.2   c-0.6-0.5-1.1-1-1.2-1.1c-0.5-4.1-1-7.8-1.5-11.5c-0.5-0.5-1.1-1.1-1.2-1.2c-2.2-6.9-4.6-12.9-8.4-18.4   c-3.8-5.4-6.7-11.7-13.2-15.4c-0.5,2.8,0.7,4.7,1.6,6.6c1.4,3.3,3.4,6.4,4.1,9.8c0.6,3,2.4,5.3,4.1,7.3   C427,148.7,429.2,152.7,432.1,156.5z M72.1,239.3c2.2-2.8,1.4-6.2,1.5-9.4c-2.3-1.9-0.5-4.6-1.5-6.9c-1-2.3-0.4-5.2-0.5-7.8   c0-1.5,0.5-3.3-0.1-4.5c-1.3-2.4-0.3-4.6-0.4-6.8c-0.1-2.6,0.5-4.6,1.5-6.7c0.4-0.8,0.8-1.7,1-2.6c1.1-4.2,3.6-8.1,3-12.8   c1.8-2.5,0.9-5.1,0.8-7.6c-1,0.4-2.1,0.5-2.4,1c-1.4,2.9-3.8,5.1-5.4,7.8c-2.3,3.9-5.1,7.4-8,10.6c-0.5,1.7,0.7,3.4-0.8,4.9   c-0.4,0.4-0.5,1.8-0.1,2.3c1.2,1.4,1.1,2.5,0,3.9c-0.5,0.6-0.6,2.3-0.1,2.8c1.2,1.5,0.8,3.1,0.9,4.7c0.2,4,1.7,7.7,3.6,11   c1.4,2.5,3.4,4.6,3.5,7.6c2.6,2.2,1.8,5.3,2.1,8.1c0,0.1,0.2,0.2,0.4,0.4C71.4,239.3,71.7,239.3,72.1,239.3z M422,186.6   c0.1,0,0.3-0.1,0.4-0.1c1.2,3.5,2.2,7.1,3.7,10.5c1.7,3.8,2,7.7,2,11.7c0,4.7-1.8,9.3-1.1,14.1c0.1,0.4-0.2,0.9-0.4,1.3   c-1.5,3.1,0.4,6.8-1.6,9.9c0.5,2.1,1,4.2,1.6,6.4c0.5-0.1,1-0.3,1.5-0.4c-0.7-5.9,2.3-10.7,4.6-15.7c0.9-1.9,3.2-3.2,3.4-5.6   c0.1-2.4,1.5-4.6,1.1-7.1c-0.2-1.2-0.7-2.7,0.7-3.7c0-3.4,0.4-6.7-0.5-10.1c-1.2-4.7-4.3-8-6.9-11.7c-2.4-3.3-4.8-6.6-7.3-10   c-0.6,0-1.4,0.1-2.4,0.2c0.5,1.9,1,3.4,1.2,4.9C422.2,182.9,422,184.8,422,186.6z M44.5,181.2c0-2,0.3-3-0.1-3.5   c-2.5-3.2-1.9-7.3-2.7-10.9c-0.9-3.8-1-7.8-3.1-11.3c-0.5-0.9,0.1-2.4,0.2-4.7c1.4,1.7,2.3,2.4,2.6,3.3c1.1,3.4,2,6.9,3.1,10.3   c1.1,3.7,1.2,7.5,1.8,11.3c0.5,3.1,1.1,6.3,1.6,9.5c0.5-0.1,1-0.1,1.6-0.2c0.2-3.8-0.3-7.5,1-11.1c0.7-1.9,1.1-3.9,1.7-5.8   c0.8-2.8,0.5-5.4-1-7.8c-1.4-2.3-3.6-7.4-3.6-9.5c0-2.7-1.3-5-2.9-6.8c-1.9-2.2-3.2-4.6-4.2-7.3c-0.1-0.2-0.5-0.4-0.8-0.6   c-0.6,0-1.3,0.1-1.9,0.1c-1.7,3.4-1.6,7.5-4.4,10.5c0,2.2-0.8,5,0.2,6.8c1.6,2.7,1.6,5.7,2.8,8.4c1.2,2.7,1.7,5.5,0.5,8.4   c-0.1,0.3,0,0.7,0.1,1.1C38.1,174.9,40.4,177.8,44.5,181.2z M460,136.4c-3.1,4.6-5.9,8.8-8.7,13c-0.2,0.2-0.1,0.6-0.1,1   c-0.4,2.7-0.9,5.4-1.2,7.4c-1.5,3.1-2.8,5.8-4,8.3c1.9,2,0.3,4.8,1.4,6.2c1.3,1.7,0.5,3.7,1.6,5.4c1,1.5,0.2,4.1,0.2,6.9   c1.4-0.9,2.3-1.4,2.9-1.8c0.3-2.6,0.3-4.7,0.9-7c1-3.4,0.8-7,1.2-10.6c0.1-0.9,0.8-1.7,0.8-2.6c0.1-2.9,2.7-5.1,2.3-8.2   c-0.1-0.5,1.4-1.1,2.2-1.8c0.8,1,1.4,1.7,2,2.5c-0.9,0.9-2.2,1.6-2.2,2.3c0,3.9-2.4,7.3-2.1,11.2c0.2,3.6-1,6.8-2.9,9.8   c-0.2,0.2-0.1,0.6-0.1,1.1c0.6,0.5,1.3,1.1,2.3,1.9c1.4-1.9,2.8-3.5,3.7-5.2c0.9-1.8,1.4-3.7,2.1-5.6c-1.1-2.3-1.4-4.5-0.7-6.5   c1.1-3.2,2.2-6.5,2.9-9.8c0.6-2.4,0.6-4.4-0.1-6.9c-0.9-3.1-3.3-5.9-2.3-9.2C461.3,137.6,460.9,137.1,460,136.4z M416.6,273.8   c5.6,2.9,6.9,4.5,10.5,9c2.5,3.1,4.4,6.6,6.7,9.7c1.6,2.1,1.9,4.6,3.3,6.7c1.5,2.2,1.8,5,2,7.7c0.1,1.9,1,3.6,2.6,4.6   c2.4-0.5,4.6-0.9,6.1-1.2c1.4-1,2.5-1.8,3.3-2.3c0-1.3,0-2.1,0-3.6c-1.4-1.4-3.2-3.2-5.1-5.1c0.9-4-1.1-7-4.1-9.6   c-0.5-0.4-0.9-0.9-1.4-1.4c-1.7-1.7-2.7-3.7-3.6-6c-2.3-5.7-5.7-10.8-12.5-12.1c-2.4-2.3-4.4,0.4-6.5,0.8   C417.4,271.2,417.1,272.7,416.6,273.8z M73.7,171.3c1.3-0.4,2.5-0.4,3-1c1.5-2,2.9-4.1,3.9-6.4c1-2.3,0.9-5.2,2.2-7.1   c1.5-2.1,0.4-4.3,1.6-6.4c2.2-3.8,4-7.8,7.1-11.1c3.2-3.3,5.6-7.5,9-10.8c3.5-3.4,5.5-7.7,8.2-11.6c0.1-0.2-0.1-0.6-0.3-1   c-0.8,0-1.5,0-2.4,0c-0.6,0.6-1.4,1-1.7,1.8c-1.3,2.7-3.4,4.6-6,6c-1.8,1-3.4,2.6-5.2,3c-2.8,0.6-3,3.2-4.5,4.7   c0.1,4.7-3.3,8-4.9,12c-1.3,3.1-4.3,4.7-5.8,7.6c-0.1,0.3-0.9,0.2-1.2,0.3C74,158,73.2,161.5,73.7,171.3z M390.9,116.4   c0.2,1.4,0.1,2.5,0.6,3.4c2.8,6,7.7,10.5,11.7,15.7c2.3,3,5.3,5.4,7.3,8.5c1.8,2.8,4.4,5.4,4.5,9.1c2.1,1.5,0.7,3.9,1.5,5.9   c1.6,4,2.9,8.1,5,11.6c1.2,0.5,2.1,1,3.1,1.4c1.8-5.5-0.8-10.5-0.5-15.8c-1.9-2.5-3.5-5.3-5.7-7.5c-2.3-2.3-3.9-5-5.3-7.9   c-0.6-1.2-0.6-3-1.4-3.9c-2.3-2.3-2.8-4.9-2.5-8.2c-1.6-0.7-3.3-1.3-4.8-2c-3.2-1.6-6.6-2.7-8.4-6.4   C395,118.8,393.5,117.3,390.9,116.4z M25.6,255c2.5,0.5,4.3,0.9,6.2,1.4c4.7,1,8.7-1.8,13.2-2.1c0.6,0,1.2-1.5,2-2.7   c-5.6-0.6-10.4-2.1-15.3-3.6c-3.8-4.1-7.6-8.3-11.6-12.5c-1.9-2-4-3.7-4.8-6.5c-0.2-0.8-1.5-1.3-2.9-2.5c0,1.9-0.3,2.9,0,3.7   c2.3,5.6,3.6,11.5,6.9,16.7C21.2,249.9,23.2,252.7,25.6,255z M205.3,385.4c1.7,0.7,2.6,1.3,3.6,1.5c3.4,0.6,6.5,2.5,10.1,2.3   c2.7,2.4,6.3,1.5,9.4,2.7c1.3,0.5,2.7,1,4.1,1c5.8,0.1,11.7,0.2,17.5,0c5.9-0.2,11.8,0.7,17.6-0.9c2.7-0.7,5.7-0.9,8.5-1.4   c2.6-0.4,5.1-1.3,7.8-1.8c3.3-0.6,6.6-1.7,9.6-3.4c0.6-0.3,0.8-1.4,1.2-2.1c-3.8,1.4-7.6,1.4-11.2,2.5c-2.5,0.8-5.7,0.1-8,1.3   c-2.7,1.4-5.9-0.3-8.3,1.8c-6.2-0.5-12.4,1.2-18.6,0.8c-3.8-0.2-7.8-1.1-11.6-0.7c-4.6,0.4-9-1.5-13.6-1.1c-1.7-2-4.3-0.9-6.4-1.5   C213.6,385.5,210,384.1,205.3,385.4z M452.4,254.7c16,4.6,16.2,2.8,22.8,0.2c0-0.2,0-0.4,0-0.5c3.7-4.9,6.4-10.3,8.4-16.1   c0.9-2.6,2.5-5.2,1-8.5c-1,0.8-2.2,1.4-2.7,2.3c-1.5,2.9-4,4.7-6.1,7c-0.6,0.7-1.2,1.5-1.7,2.3c-4.9,6.7-11.4,10.4-19.8,11.2   C454,253.1,453.4,253.6,452.4,254.7z M14.5,224.9c2.3,2.7,4.7,5.4,7,8c2.6,2.9,5.6,5.4,7.9,8.7c2.1,3,5.3,4.7,9,5.9   c2.6,0.8,5.3,0.5,7.7,1.9c1.1,0.6,2.1,1.3,3.4,2.1c1.2-0.1,2.6-0.2,4-0.3c0-0.7-0.1-1-0.1-1.5c-6.8-0.8-8.9-6.9-12.5-11   c-4-2.1-7.8-4.2-11.8-6c-2.5-1.1-4.8-2.5-6.6-4.6c-2-2.3-3.9-4.6-5.8-6.8c-1,0.1-1.6,0.1-2.4,0.2C14.5,222.4,14.5,223.4,14.5,224.9   z M484.4,223.4c-0.9-0.1-1.7-0.2-2.8-0.3c-1.2,1.3-3.2,2.5-3.8,4.2c-0.8,2.4-2.8,3.1-4.4,4c-1.8,0.9-2.9,3.3-5.3,2.9   c-5.4,2.5-10.9,5-14.3,10.1c-2,3-4.2,5.1-7.4,6.3c-0.2,0.1-0.2,0.6-0.3,1.1c0.8,0.5,1.7,1,2.4,1.4c3.5-1.5,6.9-2.9,10.5-4   c3.4-1,7.1-2.3,9.2-5.5c2.1-3.2,5-5.6,7.5-8.4c2.7-3,5.5-6.1,8.1-9.2C484.3,225.5,484.2,224.5,484.4,223.4z M392.8,105.6   c-2.2,0-4,0-5.5,0c-2.7-4.4-5.3-8.5-7.7-12.7c-1.3-2.3-3.1-4.2-5-5.9c-1-0.9-2.4-1.5-3.9-2.4c-3.1,1.3-6.4-1.8-11-0.3   c11.6,9.1,20.8,19.5,29.3,31c1.5-2.1,2.7-3.7,3.9-5.3C392.8,108.7,392.8,107.4,392.8,105.6z M108.5,113.8c4.9-5.7,9-10.9,13.6-15.7   c4.6-4.9,9.7-9.4,14.6-14.1c-0.3-0.3-0.7-0.7-1.6-1.6c-2.5,0.4-5.3,0.9-7.9,1.3c-3.1,3.6-6.9,5.9-9.1,10c-2,3.8-5.3,7-6.8,11.1   c-1.8,0-3.5,0-5.1,0c-0.5,0.9-0.9,1.7-1.3,2.5C105.9,109.1,107,111,108.5,113.8z M358,183.2c-1.4,6.9,0.6,13.6,0.9,20.4   c0.2,5.4,1.1,6.4,0.4,8.4c-0.9,2.9-2,5.7-4.6,7.6c-0.2,0.1-0.1,0.6-0.1,0.6c1.2,1.7,2,3.2,3.1,4.6c1.1,1.3,2.5,2.5,4.1,3.9   c1.4-2.8,2.6-4.9,1.1-7.8c-0.6-1.2-0.8-3.3-0.1-4.2c1.1-1.5,0.8-2.8,0.8-4.2c0-3.4,0.3-7-0.6-10.3c-0.9-3.5,0-6.9-1.2-10.5   c-0.9-2.9-1.3-6-2.8-8.7C358.8,183.1,358.4,183.2,358,183.2z M61.5,316.9c-4.3-1.9-9-2.4-13.6-3.3c-1.6-0.3-3.3-0.1-5-0.1   c-1.8,0-3.7-0.1-5.5,0c-1.6,0.1-3.3-0.7-4.6,0.9c-1.5-1.7-3.4-0.7-5.4-1c-0.5,1.2-0.9,2.3-1,2.4c1.2,1.7,2,2.8,2.7,3.8   c3.6-2.1,7.3-1,10.9-1.1c3.6-0.1,7,1.4,10.6,1c3.6-0.3,7.2-0.1,10.9-0.1C61.5,318.5,61.5,317.8,61.5,316.9z M61.2,322.7   c-2.6-0.3-4.6,1.4-7.2,1c-2.4-0.4-4.9-0.1-7.7-0.1c0.3,1.9,0.6,3.3,1.1,6c-0.2,0-1.3,0.3-3.2,0.8c1.8,0.9,2.5,1.3,3.3,1.7   c2.2,0.6,4.8,0.8,7.5,0.5c2.5-0.2,5-0.8,7.5-1.3c-0.2-0.2-0.3-0.3-0.5-0.5c0.6-0.2,1.2-0.4,1.8-0.5c-0.1-0.3-0.2-0.6-0.3-0.9   c-1.7-0.4-3.4-0.9-5.7-1.5C59.6,326.2,62.7,326,61.2,322.7z M189.9,226.4c4.6-0.3,8.2-3.5,12.2-5.7c0-0.7,0-1.3,0-2   c-1.7-1.5-3.8-3.3-5.9-2.3c-2.3,1.2-3.8,0.4-5.7-0.1c-0.7-0.2-1.5,0-1.6,0c-1.2,1.6-1.9,2.6-2.8,3.7c0,0.7,0,1.7,0,2.8   C187.2,223.9,188.4,225,189.9,226.4z M171.1,212.6c2.6,5.6,7.4,6.6,12.5,6.6c0.9-1.9,1.7-3.4,2.4-5c-1.8-3.3-1.8-3.3-4.5-5   C174.7,209.2,174.7,209.2,171.1,212.6z M436.2,332.6c2.9,0.3,5.4,0.1,8,0.9c2.3,0.7,5.2-0.4,7.3-2.7c-0.9-1-1.6-1.9-2.2-2.6   c0.4-0.6,0.7-1.2,1-1.6c-1.9-2.9-4.6-3.2-7.4-2.9c-1.3,0.1-2.6,0.8-3.8,1.3c0,1.3,0,2.2,0,3.2C436.4,329.6,436.4,329.6,436.2,332.6   z M204.3,230.2c5.4,0.3,9.6-0.3,13.4-4c-1.4-1-2.4-1.7-4.1-2.9c-2.8,1-6.5-2.4-10.6-0.7c-0.6,0.9-1.2,2-1.9,3.2   C202.2,227.3,203.3,228.8,204.3,230.2z M427,125.1c-0.2-1.3,0-2.5-0.5-3.3c-1-1.8-2.2-3.4-3.5-5.1c-1.8-2.4-3.7-4.9-5.7-7.1   c-1.3-1.5-3.1-2.3-5.2-1.9c-1.8,0.3-3.5,1-5.6,1.6c1.9,2.7,5.1,2.4,7.4,3.7c2.6,1.5,4.3,4,6.6,5.7   C422.9,120.5,423.2,124.1,427,125.1z M82,107.8c-4,5.1-8.3,10-11.8,16.9c1.6-0.9,2.2-1.2,2.6-1.6c2-2,4.1-3.9,6-6   c3.5-4,7.8-6.4,13-7.4c0.4-0.1,0.7-1,1.1-1.5c-0.5-0.3-0.6-0.5-0.8-0.5C88.7,107.8,85.4,107.8,82,107.8z M418.8,171.1   c-3.4-6.8-6.1-13.4-7.1-20.9c-1.3-1.6-2.7-3.5-4.8-6.2c0,1.6-0.2,2.3,0,2.8c1.6,3,1.9,6.5,3.7,9.5c1.6,2.6,2.8,5.7,3.2,8.7   c0.7,5.6,3.2,10.6,4.9,16C418.8,177.5,418.8,174.1,418.8,171.1z M445.9,384.6c-4.1,0.5-7.8,1-11.7,1.6c-0.4,0.6-0.9,1.2-1.4,1.9   c1.1,1.1,2,2,3.1,3.2c3.7-0.8,7.3-1.7,10.9-2.5c2-2.2,4.5-3.9,5.4-6.8c0.1-0.2-0.2-0.6-0.3-1c-0.7,0-1.5,0-2.3,0   C448.2,382.3,446.9,383.6,445.9,384.6z M41.1,363c-1.9,0.4-3.6,1.2-4.6,0.7c-2.8-1.4-5.7-0.5-7.8-0.8c-1.4,1.1-2.5,1.8-3.8,2.8   c0.8,1.3,1.4,2.3,1.9,3.2c4.9-1.8,9.4-1.4,13.8,0c2.5-1,2-2.9,1.9-4.7C41.9,363.8,41.5,363.3,41.1,363z M54.2,134   c-1.2-0.2-3.2-0.6-5.4-1c-0.4,0.6-1,1.3-1.2,1.6c2.1,3.4,3.8,6.3,5.7,9.3c0.5,0,1.2,0,2,0c0.7-4.3,2.2-8.3,5.8-11.1   c0.4-0.3,0.4-1,0.8-2.4C59.1,131.7,57,132.6,54.2,134z M63.7,388.2c-0.6-1.1-1.1-2.2-1.7-3.3c-3.4,0-6.7,0-10.1,0   c-1.3-1-2.5-2.1-3.9-2.8c-0.7-0.4-1.7,0-3,0.1c0.8,1.5,1.3,2.7,1.5,3c5,4.1,10.1,5.1,15.6,4.7C62.7,389.2,63.2,388.7,63.7,388.2z    M437.3,133.5c2.2,2.3,4,4.1,6,6.2c0,1.9,0,4.1,0,6.3c0.7-0.1,1.3,0,1.5-0.3c2.2-3.4,4.4-6.8,6.9-10.8c-2.9,0-5.2,0.1-7.4,0   C442.2,134.7,440.8,132.1,437.3,133.5z M350.1,217c0.8,0.3,1.6,0.7,2.2,0.9c2.7-1.8,2.7-4.8,3.8-7.4c1.5-3.3-0.5-5.6-0.7-9.3   c-2.6,4.6-4.8,8.4-7,12.2C349,214.6,349.4,215.6,350.1,217z M61.9,223c-1.1,5.8-0.3,10.8,2.6,15.5c0.7,1.1,1.2,2.4,2.9,1.6   C67.7,233.4,66.3,229,61.9,223z M97.1,109.7c-2.7,1.1-5.3,2.4-7.9,3.1c-3.2,0.9-5.9,2.4-7.9,5c-0.4,0.5-0.4,1.3-0.7,2.3   c6.4-2.8,12.3-5.3,18.6-8C98.3,111,97.7,110.3,97.1,109.7z M220.5,226.3c0.2,2.3-3.9,3.1-1.7,6.2c3.3-0.5,6.7-1,8.9-1.3   c1.5-1.5,2.3-2.2,3.5-3.4C227.6,227.6,224.3,225.9,220.5,226.3z M125.9,209.4c-0.5,3.4,0.8,7.1-1.1,10.3c2.5,3.9,5.2-0.8,7.9,0.8   c0-1.3,0-2.1,0-2c-2.2-3.5-3.9-6.4-5.7-9.3C126.8,209.2,126.4,209.3,125.9,209.4z M442.4,184.2c-3.3,0.5-5.9,0.9-8.7,1.3   c1.2,1.8,1.8,3.6,3.1,4.6c1.7,1.4,1,3.3,1.4,4.8c1.1,0,1.9,0,3,0C441.6,191.5,442,188,442.4,184.2z M400.4,112.3   c0.2,0.4,0.3,0.7,0.5,1.1c4.2,1.8,8.5,3.4,12.6,5.6c1.7,0.9,2.9,0.8,4.7,0.6c-4-4.1-8.7-6.6-14.7-8.3   C402.1,111.8,401.2,112,400.4,112.3z M56.8,183.4c-1.4,2.9,0.9,5.8,0.7,8.7c-0.2,2.5,1.2,2.2,3,1.7c-0.4-3,0.9-5.5,3.2-7.5   c0.5-0.4,0.6-1.2,1-1.9C61.8,184,59.4,183.7,56.8,183.4z M422.1,258c-2.2-1.9-0.2-4.5-1.4-6.6c-0.5-0.4-1.1-0.8-2-1.5   c-0.6,1.6-1.3,2.8-1.5,4.1c-0.4,2.2-0.6,4.4-0.9,6.5c0.2-0.2,0.3-0.4,0.5-0.6c0.3,1,0.6,1.9,1.1,3.5   C419.6,261.1,420.8,259.6,422.1,258z M426.2,337.7c-8.3,0-9.6,0.4-11.2,3.5c1,1.2,2.2,2.4,3.7,1.2c1.1-0.9,2.2-0.6,3.2-0.7   c1.6-0.1,3.3,0,5.4,0C426.9,340.2,426.6,339,426.2,337.7z M74.6,240.4c-1.3,2.6-4.4,1-4.8,4.2c2.6,0.5,4.8,2.5,8.1,1.4   c-0.6-2.6-1.1-5.1-1.7-7.5c-0.1-0.4-0.7-0.8-1.5-1.5C74.6,238.7,74.6,239.8,74.6,240.4z M401.2,93.1c-0.5-0.3-1-0.5-1.6-0.8   c-1.7,3.3-3.3,6.6-4.9,9.8c0.6,0.6,1.1,1.1,1.3,1.3c1.2-1.2,2.5-2.4,3.9-3.8C400.4,97.6,400.8,95.3,401.2,93.1z M82,341.6   c-3.2-3.8-7.7-1.9-10.8-4c-0.6,0.6-1.1,1.1-1.4,1.4c0,0.9,0,1.7,0,2.6C73.7,341.6,77.5,341.6,82,341.6z M75.2,197   c0.5,3.6-1.8,6-2.5,7.9c0.5,3.2,0.8,5.6,1.2,8.1c0.6-0.2,0.5,1.5,1.7,0.9c0-2.7-0.1-5.3,0-8c0.1-2.5-0.6-5.1,0.3-6.7   C75.6,198.3,75.4,197.6,75.2,197z M65.3,245.2c2.3,2.8,4.5,5.6,6.6,8.2c1,0,1.5,0.1,2,0c0.3,0,0.5-0.3,0.7-0.5   c-1.6-2.9-5-6.3-8.3-8.5C66,244.5,65.8,244.7,65.3,245.2z M419.9,99.1c-4.1-0.4-6,0.1-8.9,2.5c-0.1,0.1,0.1,0.6,0.3,1.3   c2.8-0.5,5.7-0.9,8.7-1.4C419.9,100.6,419.9,99.9,419.9,99.1z M78.6,99.3c1.7,1.9,4.1,2.3,6.5,2.4c0.8,0.1,1.7-0.8,2.8-1.3   C83.2,97.2,81.5,97,78.6,99.3z M93.5,123.1c2-0.6,3.3-1.1,4.6-1.5c-0.2-0.1-0.3-0.2-0.5-0.3c1.2-1.2,2.4-2.4,3.5-3.5   c0,0-0.4-0.4-0.8-0.8C98.1,118.7,94.4,118.7,93.5,123.1z M61.4,244c-1.5-2.9-4.3-2.6-6.7-4c0,1.3,0,2.2,0,3.2   C56.9,244.3,58.7,246.9,61.4,244z M390.7,97.3c-1.8-2.2-3.6-4.4-5.6-6.9c-0.1,0.9-0.4,1.6-0.2,2.1c1.1,2.7,2.5,5.2,4.8,7.2   c0.1,0.1,0.6-0.1,1-0.2C390.7,98.8,390.7,98,390.7,97.3z M398.1,120.5c1.7,1.8,4.2,2.4,7.1,3.7c-0.9-4.5-4.7-4.4-7.1-6.5   C398.1,118.8,398.1,119.5,398.1,120.5z M111.1,91.9c-1.8,1.7-2.4,4.2-3.6,6.8c3-0.9,3-0.9,6.2-6.8C112.8,91.9,112,91.9,111.1,91.9z    M347.2,255.4c4.7-2.1,9.7-0.3,15-1.4c-0.8-0.8-1.3-1.2-1.8-1.6c-3.2,1.3-10.3,1.4-13.4,0.2c-0.4,0.5-0.8,0.9-1.3,1.4   C346.3,254.4,346.7,254.9,347.2,255.4z M81.4,260c-1.3-3.4-2.1-5.6-3-8.2c-1.2,2.3-2.5,4-1.3,6.8C77.9,258.9,79,259.2,81.4,260z    M400.9,85.3c-0.3-0.4-2.7-4.5-2.7-4.5c-0.4,0.4-0.7,0.7-1.1,1.1c0,1.9,0,3.8,0,6.5C398.7,87.1,399.8,86.2,400.9,85.3z M386.9,86.2   c-1.6-1.6-1.7-4.5-4.6-4.6c-0.3,3.1,0.3,4.3,3,6.1C385.7,87.3,386.2,86.9,386.9,86.2z M424,254.9c3-0.9,3-0.9,6.1-4.4   c-0.1-0.7-0.2-1.4-0.3-2.2C428.7,251.4,423.4,250.6,424,254.9z M330.9,255.9c5,1.5,8.8-1,13.3-0.5c-0.9-1.1-1.4-1.7-1.7-1.9   C338.6,254.3,335.2,255,330.9,255.9z M65.2,250.5c-2,0-3.8,0-6.1,0c2.4,1,4.3,1.8,6.2,2.6c0.4-0.4,0.8-0.9,1.2-1.3   C66.1,251.4,65.8,251.1,65.2,250.5z M401,90.7c0.8,0,1.1,0,1.6,0c0.5-1.2,1-2.4,1.6-3.8c-1.3,0-2.2,0-3.2,0   C401,88.1,401,89.2,401,90.7z M157.3,158.1c-0.4,1-0.8,1.9-1.1,2.7c2.3,0.9,3.3-0.9,4.5-2.1c0.1-0.1-0.1-0.4-0.1-0.7   C159.4,158.1,158.4,158.1,157.3,158.1z M437.6,253.3c-3.3-2.6-3.4-2.5-5.2,0C433.9,253.3,435.3,253.3,437.6,253.3z M92.5,105.6   c1.6,0,2.8,0,4.1,0c0-0.6,0-1.1,0-1.5C95,103.3,93.8,103.8,92.5,105.6z M404.9,104.9c-1,0-1.8,0-2.8,0c0,0.6,0,1,0,1.7   c1,0,1.8,0,2.8,0C404.9,106,404.9,105.5,404.9,104.9z M128,254.7c0,0.2,0,0.3,0,0.5c1.2,0,2.4,0,3.9,0c-0.1-0.7-0.2-1.3-0.3-1.6   C130.3,254,129.1,254.4,128,254.7z M395.9,263c-0.9-0.7-1.2-2.2-3-1.2C393.8,262.5,394.1,264.1,395.9,263z M353,156.7   c-0.8-0.8-1.3-1.3-2.6-2.5c0.4,1.7,0.5,2.2,0.6,2.9C351.7,156.9,352.1,156.9,353,156.7z M80.9,170c0.2,0,0.3,0,0.5,0   c0-0.7,0-1.3,0-2c-0.2,0-0.3,0-0.5,0C80.9,168.7,80.9,169.3,80.9,170z M319.6,259.6c0,0.2,0,0.3,0,0.5c0.7,0,1.3,0,2,0   c0-0.2,0-0.3,0-0.5C320.9,259.6,320.3,259.6,319.6,259.6z M326.6,257.6c0,0.2,0,0.3,0,0.5c0.7,0,1.3,0,2,0c0-0.2,0-0.3,0-0.5   C328,257.6,327.3,257.6,326.6,257.6z M421.4,83.7c0.1,0,0.2,0,0.3,0c0-0.3,0-0.7,0-1c-0.1,0-0.2,0-0.3,0   C421.4,83,421.4,83.3,421.4,83.7z"></path>
	<path d="M369.4,132.7c-3.8,4.1-3.7,9.2-3.6,14.3c-3.2-1.3-3.2-1.3-5-5.4c0.8-4.8,3.7-9.1,2.9-14.3c-0.5-0.5-0.9-0.9-1.4-1.4   c-0.7,0-1.3,0-2,0c-1.4,1.4-2.7,2.8-4.6,4.7c0,1.1,0,2.7,0,4.8c-1.2-0.7-2.1-0.9-2.4-1.5c-1.2-2.6-2.5-5.1-5.3-6.3   c-0.2-0.1-0.2-0.5-0.3-0.8c0-0.1,0-0.3,0.1-0.8c5,0.4,8-3.6,12-5.8c2.2-1.2,4-3.2,6.2-4.9c0-1.4,0-2.9,0-4.5c2.3,0,3.4,1.8,4.3,3.1   c1.1,1.8,2.5,3.4,4,4.8c2.7,2.5,3.3,6,4.5,9.1c0.7,1.7-0.7,3.6-2,4.5c-1.7,1.2-3.8,2.7-6.1,0.9C370.4,133,370.1,133,369.4,132.7z    M373.8,127.3c0-2.6,0.4-5.2-1.4-7.4c-3-0.9-5,1.5-7.4,2.1c-0.5,1.2-1,2.1-1.4,3.1c1.7,1.6,3.2,3.1,4.8,4.7c0.9,0,1.9,0,2.9,0   C372.2,129,373,128.2,373.8,127.3z"></path>
	<path d="M105.5,180.1c5,1.6,8,4.6,10.2,9.1c0,1.2,0,3,0,5.6c-2-3-3.6-5.4-5.2-7.8c-3.8-0.4-7.4-0.8-11.1-1.1   c-2.3,1.9-4.5,3.7-6.6,5.4c-0.2,1.5,0,2.8-0.5,3.7c-1,1.6-1,2.9,0,4.5c1.2,1.9,1.3,4.7,4.2,5.2c0.9,0.2,1.8,0.6,2.7,0.6   c3,0.1,6,0,7.7,0c5.3-1.2,5.5-5.2,7.3-8c0.3,0,0.7,0,1.3,0c1.1,5.5-1.9,9.3-5.7,12.3c-4.2,3.3-9.1,1.7-13.8,0.6   c-1.7-1.7-3.3-3.3-5-5c-1.6-4.8-2.1-9.6-0.4-14.5c1.7-4.9,4.4-8.8,9.6-10.4C102.2,180.1,104.2,180.1,105.5,180.1z"></path>
	<path d="M257.3,77.1c0-2.8,0-5.3,0-7.7c0.7-1.3,1.3-2.6,2-3.8c2.4-4.3,7.2-6.6,12-5.7c0.3,0.1,0.8,0.2,1.1,0.1   c4.6-1.7,8,0.5,11.3,3.2c0.8,0.6,1.4,1.4,2.1,2.1c1.8,1.8,2.9,3.8,2.7,6.4c-0.1,1.7,0,3.3,0,5.3c-2,2.5-4.2,5.1-6,7.3   c-2.3,0.6-3.9,1-5.5,1.4c-0.6-0.6-1.1-1.1-1.7-1.7c5.2-3.2,9.6-6.9,7.8-14.7c-3.2-6.7-7.6-9-16.7-6.7c-0.9,1.4-2.7,3-2.9,4.8   c-0.2,2.3-1.9,4.3-0.9,7c2.8,8,5,7.6,11.7,10.1c-2.6,0-5.3,0.2-7.8-0.1c-1.3-0.2-2.6-1.1-3.6-2C261,81,259.3,79.1,257.3,77.1z"></path>
	<path d="M355.1,98.3c-0.7,1.8-1.2,3.1-1.9,4.7c-0.9-0.5-1.7-1-2.5-1.5c0-1.2,0-2.3,0-3.3c-1.6-1.6-3-3-4.5-4.5c-0.9,0-1.9,0-3.2,0   c-1,1.1-2.1,2.3-3.5,3.9c-0.6,1.7,1.3,2.6,2.5,4c1.3,0,2.6,0,4.1,0c0.6,0.6,1.2,1.3,1.9,2.2c-1.6,1.5-3,2.8-4.4,4.2   c-1.5-2.4-2.9-4.5-4.1-6.3c-1.4,0-2.4,0-3.7,0c-1.4,1.9-2.9,3.9-4.4,5.9c2,3.1,4.7,4.8,7.6,6.2c1.5,0,2.9,0,4.2,0   c0.5,0.5,0.9,0.9,1.3,1.3c-0.8,0.7-1.7,1.3-2.5,2c-3.5,1.8-5.9-1.3-8.4-3.1c-3.6-2.5-6.6-5.9-9.8-8.9c0.8-2,2.9-1.2,4.2-1.4   c3-3.7,5.7-7.1,8.5-10.3c2.2-2.6,2.5-3.7,1.1-7.5c0.8-0.1,1.6-0.2,2.5-0.3c2.3,2.3,4.5,4.8,7,6.9C349.5,94.6,352.3,96.2,355.1,98.3   z"></path>
	<path d="M311.1,74.6c-1.6,3-3,5.6-4.2,8.3c-1.4,3-2.7,6.1-2.3,9.6c0.1,0.6,0.5,1.1,0.9,2.1c-1.2,0-2.4,0.2-3.6-0.1   c-1.3-0.4-2.5-1.5-3.8-1.7c-1.5-0.3-2.3-0.9-2.7-2.4c4-1.9,5.6-5.6,7.1-9.4c1.1-2.7,2.5-5.3,3.8-7.9c-1.1-1.5-2.4-3.1-1.3-5.8   c3.1,2.4,6.7,3.1,9.8,4.7c3.5,1.7,7.3,3.5,9.8,7.8c0,3.2,0.7,7.3-4.5,8.8c-4,0.9-7.3-0.7-10.6-3.3c0.6-0.6,1.1-1.2,1.7-1.8   c1.5,0.8,2.7,1.4,4.1,2.1c1.4-1,2.9-2.1,4.3-3.1c0-1.6,0-2.9,0-4.4c-1.2-1.1-2.4-2.3-3.6-3.5C314.4,74.6,312.7,74.6,311.1,74.6z"></path>
	<path d="M380.9,177.8c0,1.1,0,1.9,0,2.8c-0.7,0.5-1.4,1.1-2.2,1.6c-2.9-3.2-0.8-7.8-5.1-11c2.7-0.2,4.1-0.3,6-0.5   c0.9-1.2,2-2.7,3.3-4.3c-1.6-3.1-3.3-6.2-4.9-9.3c-2-0.4-3.8-0.8-5.1,1.2c-0.1,1-0.1,2.2-0.2,3.5c-0.6,0-1.1,0.2-1.5,0   c-0.6-0.3-1.4-1-1.4-1.4c0.4-2.7-1.4-4.8-2.5-7.8c3.4,0.8,6.2,1.7,9,2.2c3.2,0.5,6.4,0.7,9.6,1.1c3,0.4,6.1,0.8,9.7,1.3   c0.1,0.1,0.6,0.7,1.2,1.4c-0.2,0.4-0.3,0.9-0.6,1.3c-4.1,4.5-8.3,8.9-12.4,13.5C382.9,174.7,382,176.2,380.9,177.8z M383.1,158   c0,1.5,0,3.1,0,5.1c0.9,0.3,2.1,0.7,3.2,1.1c-0.2-0.4-0.4-0.7-0.6-1.1c1.4-1.1,2.8-2.3,4.1-3.4C388.1,157.7,385.7,157.9,383.1,158z   "></path>
	<path d="M137.9,103.4c0,1.6,0,2.7,0,3.6c1.6,1.7,3.1,3.3,4.7,4.9c3.9-1.2,3.7-5.3,5.6-8.1c1.6,1.3,3.2,2.5,4.8,3.7   c0,0.5,0,1.1,0,1.8c-1.3,1.1-3,0.2-4.6,1.2c-1.4,0.9-2.4,2-3.4,2.8c2.1,2.1,4.1,4,6.7,6.5c-0.4,0,0.2,0,1,0c1.8-2,3.6-4.1,5.3-6.1   c0-1.8,0-3.2,0-4.6c0.7-0.6,1.3-1.1,1.9-1.6c3.1,2.5,1.6,5.2,0.7,8.2c-2,1.8-4,4.4-6.7,5.9c-2.7,1.6-3.5,4.9-6.7,6.1   c-0.4-0.4-0.9-0.9-1.6-1.6c0.4-0.7,0.7-1.3,1.2-2c-2-2-4.3-3.8-6-6.2c-1.8-2.3-4.4-3.6-6.2-6.3c-1.4,0-3,0-4.7,0c0-1,0-1.6,0-2.4   C132.4,107.5,135.1,105.5,137.9,103.4z"></path>
	<path d="M110.1,141c2.1,0.5,3.7,0.8,5.5,1.2c0,0.7,0,1.5,0,2.3c-4.7,0.7-6.9,2.1-11.8,7.8c0,1.5,0,3.2,0,5c1.6,3.2,4,5.9,7.8,7.6   c2.9,0.3,5.9-0.4,8.9-1.9c2.9-1.5,4.4-3.6,4.3-6.8c0-2.8,0-5.6,0-9c1.4,0.9,2.2,1.4,3,2c0,2.4,0,4.8,0,7.1   c0.1,5.2-3.4,8.7-6.3,12.4c-6.3,3.1-13.3,3.2-17.8-3.8c-0.5-0.8-1.1-1.6-2.1-3c-0.4-0.9,1-2.9-0.7-4.4c-0.3-0.2-0.3-1-0.2-1.4   c1.7-3.5,1.6-7.7,4.7-10.6C107.2,144.1,108.8,142.4,110.1,141z"></path>
	<path d="M406.9,224.9c0,0.5,0,1.2,0,2c-6.7,2.9-13.5,5.8-21.1,9c-0.9,0.8-2.4,2.2-4.3,4c-1.6-4,1.5-7.2,0.2-10.7   c4,1.2,6.1,0.8,9.2-1.5c-0.4-3.6,0.8-7.4-1.1-11.1c-1-0.5-2.1-1-3.4-1.7c-1,1.5-2,2.9-3,4.3c-2.5-1.9-1.9-3.9-0.4-6.3   c-0.3-0.4-0.7-0.9-1.4-1.6c0.6-0.8,1.2-1.6,2.1-2.8c3.5,3.8,7.6,6.3,11.7,8.7C399.4,219.6,403.1,222.3,406.9,224.9z M394.6,219.7   c-2.3,5.2-2.3,5.2,0.4,7.8c0.7-0.6,1.3-1.4,2.1-1.9c0.8-0.4,1.8-0.5,2.8-0.7c0-0.8,0-1.6,0-2.7   C398.2,221.5,396.6,220.6,394.6,219.7z"></path>
	<path d="M225,83.4c-0.9,1-1.3,1.7-1.8,1.8c-3.3,0.4-6.4,2.2-10.1,2.7c0.6-1.9,1-3.2,1.4-4.6c-1-0.8-1.9-1.6-3-2.6   c-3.7-0.6-7.4,0.5-11.2,2.3c0,1.7,0,3.5,0,5.1c1,0.6,2,1.2,3.2,2c-1,0.6-1.8,1.4-2.5,1.5c-1.8,0.1-3.8,2.8-5.4-0.2   c0.9-3.2,1.6-6.5,2.7-9.7c1.3-3.6,0.6-7.6,1.9-11.2c0.6-1.6,0.9-3.3,1.4-5c0.7,0,1.4,0,2.2,0c4.2,4.2,8.6,8.6,12.9,12.9   C220,82,220,82,225,83.4z M206.6,78.6c0.7-1.2,1-1.8,1.3-2.4c-1.1-1.2-2.2-2.4-3.3-3.5c-0.8,0-1.4,0-2.3,0   c-0.5,1.4-1.1,2.8-1.6,4.2c0.7,0.7,1.1,1.2,1.6,1.7C203.9,78.6,205.3,78.6,206.6,78.6z"></path>
	<path d="M112.8,227.8c-0.8-0.8-1.7-1.7-2.5-2.5c-0.5,0-1,0-2,0c-4.1,3.2-4.4,8.4-6.1,14.1c-0.2,0.2-1.2,1-2.3,2c-1.6,0-3.5,0-5.2,0   c-4.2-1.3-5.3-4.3-5-8.2c0.2-2.5,0-5,0-7.4c2-0.7,3.7-2.3,6.1-1c-0.4,2.4-2.8,3.1-4,5.5c0,1,0,2.7,0,4.3c1.3,1.2,2.6,2.4,4.1,3.9   c1.8-0.8,2.6-2.8,2.8-4.8c0.4-4.5,2-8.4,5-10.8c1.8-0.7,3-1.1,4.2-1.5c8,4.4,8,4.4,8,15.6c-2.2,2-4,4.8-7.9,4.5c0-1,0-1.8,0-2.6   c2.6-0.6,3.7-2.8,4.9-5.2C112.8,231.8,112.8,229.8,112.8,227.8z"></path>
	<path d="M171,82.2c3.9,4.9,5.7,11.3,10.8,15.7c1-0.3,2-0.6,3.1-0.9c0,0.4,0.3,1.1,0.1,1.2c-1.6,1.2-3.4,2.4-5,3.5   c-0.8,0.6-1.6,1.2-2.6,1.9c-0.8,0-1.9,0-3.2,0c1.3-2,0.7-4.1,0.9-6c-2.9-4.4-5.8-8.7-8.6-13c-3.6,0.7-3.6,0.7-7.4,4.4   c-0.1,1.2-0.2,2.4-0.4,4.1c-1.2-0.8-1.9-1.3-2.7-1.8c0-1.5,0-2.8,0-4.2c0.2-0.2,0.4-0.4,0.6-0.7c0.3-0.4,0.7-0.8,1.1-1.1   c0.5-0.3,1.1-0.6,1.7-0.8c6.8-3.2,12.8-7.6,19.5-11.6c1.4,1.4,2.4,2.4,4.1,4c-1.4,0.3-2.1,0.4-2.8,0.5c-1.3,0.1-2.6,0.1-3.9,0.4   C173,78.9,173,79,171,82.2z"></path>
	<path d="M406.2,194.7c-4.8-3-9-1.1-13.2-0.6c-1.1,0.1-2,0.8-3.1,0.9c-1.1,0.2-2.3,0-3.5,0c-1.3,1.3-2.6,2.6-4,4   c-0.5-0.4-0.9-0.9-1.2-1.2c-0.4-3-0.8-5.8-1.2-8.7c0.6-0.1,1.2-0.3,1.5-0.1c3.4,1.6,7,1.4,10.2-0.1c3-1.4,6.1-0.4,8.7-1   c2.5-1.1,0.8-5.1,4.3-4.9C405.1,186.7,405.6,190.3,406.2,194.7z"></path>
	<path d="M142.3,134.1c-1.8,2.7-3.4,5-5.2,7.8c-0.2,0.1-1,0.5-2,1c0-0.8,0-1.6,0-2.7c-4.6-3.3-9.3-6.7-14.5-10.4   c-1.4,0.3-3.4,0.6-6,1.1c1.6-3.7,3.8-6.5,6.4-9.6c0.8,1.7,1.4,2.9,2.2,4.4c0.1,0,0.7,0,1,0.3c3.2,3.1,7.5,4.8,10.8,7.7   c2,1.7,3.6,1.8,5.6,0.3C140.7,133.8,141.2,133.9,142.3,134.1z"></path>
	<path d="M227,69.5c-1,0-1.8,0-2.8,0c0.3-1.6,0.9-3.1,0.8-4.6c-0.1-1.3-1-2.5-1.7-4.1c0.7-0.5,1.5-1.1,3-2.2c0.2,0,1.3,0,2.7,0   c0.3,0.7,1.1,1.6,1.1,2.4C230.2,64.1,229,66.8,227,69.5z"></path>
	<path d="M138.2,103.1c2-2.6,3.5-4.6,4.9-6.4c1.4,0,2.4,0,3.5,0c0.5,0.7,1,1.5,2,3C144.3,98.8,142,101.9,138.2,103.1z"></path>
	<path d="M138.9,102.7c-0.3,0.3-0.7,0.7-1,1C138.2,103.4,138.5,103.1,138.9,102.7z"></path>
	<path d="M252.4,270.3c-1.2,1.3-2.6,2.7-4.3,4.3c-1-1-2.2-2.1-3.4-3.2c-1.3,0-2.6,0-3.9,0c-0.5-0.5-1-1-1.5-1.5   c0.1-3,0.4-6.1-2.7-8.7c3.4-1.8,5.4-4.2,5.8-8.1c3.6,1.2,7.1,0.9,10.8,0.1c-0.6,4.9,4.6,4.8,6,7.8c-2.8,2.5-1.6,6-2,9.3   C255.8,270.3,254.3,270.3,252.4,270.3z M248.4,269.5c2.2-1.2,4.1-2.3,5.9-3.3c0-1.9,0-3.6,0-5.4c-1.1-1-2.3-2.2-3.6-3.3   c-1.9,0-4.1,0-5.8,0c-0.7,1-1.1,1.8-1.7,2.5c-0.6,0.7-1.2,1.3-1.7,1.7C243.5,267.2,243.5,267.2,248.4,269.5z"></path>
	<path d="M239.2,308.7c-1,0.4-2.1,0.7-3,1c-2.5-2-4.3-4.2-3.8-7.8c0.9-0.8,2-1.7,3.2-2.7c-0.9-1.8-1.6-3.3-2.5-5   c0.8-2.5,1.6-5,4.6-5.8c0.3,0.3,0.6,0.5,0.5,0.5c-0.6,0.9-1.1,1.9-1.8,3c0.6,1.1,1.3,2.2,2,3.4c1.5,0,3,0,4.5,0   c0.4-0.7,0.8-1.5,1.4-2.7c-1.2-1.3-2.6-2.9-4.2-4.6c1.2-0.8,2.1-0.5,3.4,0c2.7,1,3.4,3,3.9,5.6c-1.2,0.8-2.4,1.6-3.5,2.3   c1.7,1.7,2.7,2.6,3.1,3c0.4,2.4,0.6,3.8,0.8,5.6c-0.2,0.5-0.5,1.5-0.9,2.7c-1.4,0.7-3,1.7-4.8,2.2   C241.4,309.7,240.4,309.1,239.2,308.7z M241.8,300.5c-2.2,0.5-4.9-3.1-6.5,0.9c-0.1,2.9,1.9,4.5,3.5,6c1.7,0,3,0,3.7,0   c2.7-1.1,1.7-2.9,1.9-4.5C243.5,302.3,242.8,301.6,241.8,300.5z"></path>
	<path d="M258.7,309c-0.7,0.6-1.3,1.1-2.1,1.9c-0.9-0.3-1.9-0.7-2.7-1c-0.3-0.7-0.5-0.9-0.5-1.2c-0.1-3.6,0.9-6.8,3.1-9.7   c1.5-2,2.6-4.2,4.1-6.7c-1.6-1.1-3.3-2.1-5.9-1.4c-0.3,0.4-0.9,1.2-1.4,1.8c-1,0-1.7,0-2.3,0c-1-0.9-0.8-2.4,0.8-4.9   c3.7,0,7.5,0,11.4,0c0.8,1.6,0.6,3.3-0.7,4.7c-1.5,1.6-0.5,3.9-1.9,5.7c-1.1,1.5-1.4,3.7-2.1,5.6c-0.2,0.6-0.7,1.1-1,1.6   C257.8,306.5,258.2,307.6,258.7,309z"></path>
	<path d="M276.2,295.2c1.4,1.3,2.5,2.2,3.6,3.2c-0.5,2.8-0.9,5.1-1.3,7.3c-1.4,2.6-4.1,3-6.5,3.7c-0.6,0.2-1.4-0.4-2.3-0.7   c-0.2,0.1-0.5,0.5-0.7,0.7c-0.9-0.4-1.7-0.9-3.2-1.7c2.4-0.1,4.1-0.2,6.2-0.3c1.6-1.5,3.6-3.1,3.4-6.5c-1.3-0.9-2.7-2-4.5-3.3   c1.6-1.8,3.5-3.2,2.4-5.6c-1.5-3-3.5-1.1-5.6-0.3c-0.1-1-0.2-1.8-0.3-2.5c1.9-2.1,4.2-2,6.5-1.8c1.2,0.7,2.3,1.3,3.2,1.9   C278.2,291.8,276.8,293.6,276.2,295.2z"></path>
	<path d="M227.3,308c-0.6,0.6-0.9,0.9-1.4,1.4c-1.3,0-2.7,0-4.3,0c-0.3-0.3-0.8-0.8-1.2-1.2c0.6-1.5,1.1-2.9,1.8-4.5   c-1.3-2.9-1.6-6.1,0.1-9.4c-0.5-1.4-2.8-2-1.8-4.5c1.1-0.5,2.5-1,3.5-1.5c2.7,1,2.6,3,2.2,4.6C224.7,299.8,224.8,302.1,227.3,308z"></path>
	<path d="M137.3,374.8c2.6,0.2,4.2-0.4,5.3,1.4c-1.1,1.5-2.4,3-3.3,4.8c-1,1.9-1.1,4.3-2.3,6.1c-1.4,2.2,2.2,3.8,0.3,5.9   c-1.3-0.4-2.6-0.8-4.4-1.4c-0.4-0.5-1.3-1.3-2.4-2.4c1.1-0.9,2.3-1.8,3.3-2.6c-0.1-1.5-0.1-2.6-0.2-4c-3.1,1.1-4.2,3.8-6.5,5.3   c-0.5,0-1.2,0-2.3,0c-0.2-2.8,0-5.8-0.1-8.8c-0.9,0-1.7,0-2.8,0c-0.1,2-0.7,4.2,0.7,6.4c-0.4,0.4-1,1-1.7,1.7   c-1.5-0.9-2.9-1.8-4.7-2.9c1.6-1.7,2.9-3.2,4.4-4.8c-0.3-3.2,4.5-6,0.8-9.8c2.3-0.7,2.3-0.7,5.2,0.4c0.5,3.7,1,7.5,1.3,10.1   c0.7,1.6,1,2.4,1.2,2.8C132.2,379.9,134.9,377.3,137.3,374.8z"></path>
	<path d="M306.5,422.4c0-0.7,0-1.2,0-1.9c1-0.5,2.1-1.1,3.5-1.8c4.1,1.8,8.3,3.6,13,5.7c0.7-0.7,1.4-1.3,2.4-2.3   c-2.7-2.3-4.8-4.1-7.2-6.1c1.4-1.1,2.8-2.1,4.4-3.2c0.5,0.5,1.1,0.9,2,1.6c-1,5.5,2.7,10,4.5,15.5c-1.9,0.1-3.3,0.2-4.9,0.2   c-2.6-3.2-6.9-3.1-10.3-5.3c-1.3,3,1.5,4.6,1.7,6.7c1.1,0.7,2.1,1.4,3.4,2.3c-0.7,0.9-1.2,1.5-1.7,2.2c-1.4,0-2.9,0-4.5,0   c-0.1-0.4-0.3-0.9-0.2-1.3c0.2-4-1.7-7.3-3.5-10.5C308.6,423.4,307.5,423.1,306.5,422.4z"></path>
	<path d="M334.5,386.2c0.5,0.5,1.2,1.2,1.9,1.9c0.1,0.1,0.2,0.2,0.5,0.6c-0.4,1-0.8,2.2-1.3,3.5c2,2.7,4.5,4.8,8.6,5   c-0.8,1.2-1.3,1.9-1.8,2.7c-1.5,0-2.8,0-4.1,0c-2.1-1.8-4.3-3.6-7.4-4.2c0,1.2,0,2,0,3c1.1,1.1,2.4,2.4,4,4c-1.7,1-3.2,1.9-5,2.9   c-0.9-0.8-2.2-1.5-2.1-2.1c0.3-3-1.7-5-2.6-7.5c-0.3-0.7-0.4-1.5-0.7-2.5c-1.1-0.6-2.5-1.2-4.1-2.1c0.5-0.7,0.8-1.8,1.3-1.9   C325.9,388.5,329.4,384.6,334.5,386.2z M329,393.9c1.8,0.3,3.3-0.1,3.5-1.8c0.2-1-0.7-2.2-0.9-3c-1.7,0-2.7,0-3.9,0   c0,0.6-0.2,1.2-0.1,1.6C328.1,391.8,328.6,392.9,329,393.9z"></path>
	<path d="M218.2,431.9c1.9,0.6,3.5-0.3,5.3,0.8c1.4,0.8,3.5,0.4,5.3,0.5c1,1,2.1,2.1,3.2,3.2c0,1.3,0,2.8,0,4.3   c-0.5,0.5-1.1,1.1-1.7,1.7c-0.9,3.7,1.5,6,3.9,8.2c-0.5,0.5-1,1-1.5,1.5c-0.6,0-1.3,0-2,0c-2-2-4.2-3.8-4.6-7   c-0.2-2-1.9-2.4-4.1-1.6c0.4,2.1,0.8,4.2,1.2,6.3c-2.7,0.8-4.9,0.3-7.2-1.2c1.1-2.6,3.5-4.6,3.3-8.1   C219.1,436.7,219.5,435.2,218.2,431.9z M224.8,441.6c1.4-0.7,2.4-1.2,3.4-1.7c0-1.4,0-2.4,0-3.5c-0.7-0.5-1.5-1-1.9-1.3   c-1.3,1-2.3,1.8-3.3,2.5C223.6,439,224.1,439.9,224.8,441.6z"></path>
	<path d="M321.8,400.3c-0.3,2.4-0.7,5.2-1.1,8.1c-3.4,3.8-7.8,4.9-11.8,4.7c-4.7-1.3-5.9-4.9-7.4-8.2c0.4-1.6,0.8-3.3,1.5-5.8   c1.6-1.6,4.1-3.1,7.2-4.4c4.2-1.7,6.9,0.4,9.9,2.4C320.7,397.5,321,398.6,321.8,400.3z M306.9,398.3c-2.2,4.7-1.7,7.7,1.7,10.3   c2.9,2.2,5,1.9,8.9-1c0.1-2.9,0.5-5.8-1.1-8.2c-1.9-0.9-3.5-1.7-5-2.5C309.8,397.3,308.5,397.8,306.9,398.3z"></path>
	<path d="M260.2,414.4c0.7,1.7,1.8,3.5,2,5.4c0.2,1.8-0.7,3.7-1.2,6c-1.2,1.1-2.8,2.6-4.5,4.2c-2.7,0-5.7,0-8.6,0   c-3.6-3-6.8-6.2-5.5-11.5c1.4-5.1,6.6-5.2,10.1-7.9C255,411.9,257.4,413,260.2,414.4z M256.1,426.8c4.2-6.1,2.6-10.5-5-12.9   c-1.5,1-3.2,2.2-4.7,3.2c-0.7,4.2,1.2,7.1,3.2,10c1.9,0,3.7,0,5.5,0C255.5,427.1,255.8,426.9,256.1,426.8z"></path>
	<path d="M290.9,442.1c-0.9-1.1-2-2.4-3.4-4c0-2.3,0-5.3,0-8.5c3.3-3.8,7.5-6.7,12.7-5c4.3,1.3,7.2,5,6.1,11.7   c-1.5,1.7-3.3,3.8-5,5.7C295.8,443.1,295.8,443.1,290.9,442.1z M291.7,436.7c3,3.3,5.1,4.6,10.2,1.8c0.3-2.1,0.6-4.6,0.9-7.2   c-2.3-1.7-4.3-3.1-6.1-4.4c-3.1,0.5-4.8,2.1-6.4,4.1C290.7,432.9,291.2,434.7,291.7,436.7z"></path>
	<path d="M370.8,372.1c1.2,1.5,2.6,3.3,3.8,4.8c1,6.1-0.8,10.5-6.8,13c-2.2,0-4.9,0-7.5,0c-1.5-1.6-3-3.1-4.6-4.7c0-2.6,0-5.2,0-7.8   C359.5,372.8,364.2,371,370.8,372.1z M372.5,381.2c-1.9-2.4-3.5-4.5-5.2-6.7c-2.7,0.5-5,0.9-7,1.3c-0.6,1.4-1,2.4-1.2,2.8   c0.3,1.6,0.5,2.7,0.8,3.7c0.3,1.2,0.8,2.3,1.3,3.9c2.3,0.3,4.8,0.6,7.4,1C369.8,385.2,371,383.5,372.5,381.2z"></path>
	<path d="M223.2,417.1c-1,1.9-1.8,3.4-2.6,5c-2.1,2-4.7,2.3-7.7,1.7c0.2-0.7,0.3-1.3,0.6-1.6c0.9-0.7,2-1.1,2.7-1.8   c3.9-3.7,3.9-6.5,0.2-10.7c-0.2-0.2-0.5-0.5-0.7-0.7c-1.6,0-3.3,0-5.1,0c-1.1,1.1-2.2,2.3-3.1,3.3c-1.9,4.9,1.7,7.8,4.1,11.6   c-3.5,0.4-4.8-2.6-7.2-3.1c-2-2.9-1.1-6.3-1.3-9.3c4.1-3.8,2.8-5.9,15.6-4.5C221.6,409.9,223.7,413.2,223.2,417.1z"></path>
	<path d="M334.8,427.1c0-2,0-3.8,0-5.1c-2.4-3.7-3-8.2-8-9.9c1.7-0.9,2.7-1.8,3.8-2c2.5-0.5,4.7-1.6,6.7-3.1   c2.1-1.5,2.3-1.5,4.8,1.6c-0.7,0.3-1.5,0.6-2.3,1c0.2,0.2,0.3,0.3,0.5,0.5c-1.3,0-2.6,0-4.1,0c-0.5,0.6-1.2,1.1-1.4,1.8   c-0.4,1.4,0.4,2.5,1.8,3.4c1.5-1,3-2,4.6-3c1.5,1.7,1.5,1.7,1.5,4.7c-1.4,0-2.9,0-4.7,0c-0.1,1.4-0.1,2.6-0.2,3.6   c1.3,2.1,3,1.7,4.8,1.6c0.8-1.2,1.7-2.6,2.6-3.8c0.9,0,1.7,0,3,0c-0.5,1.7-1,3.1-1.4,4.5c-3.1,1.8-7,1.7-9.8,4.4   C336.5,427.3,335.6,427.1,334.8,427.1z"></path>
	<path d="M236.6,435.2c2.2,0,4.4,0,6.7,0c-0.6,1.2-1.2,2.3-2,3.8c0.5,2.8-1.2,6.4,1.8,10.2c1.1,0.3,3.3,0.8,5.5,1.4   c1.3-1.7,2.4-3.2,3.6-4.8c-0.3-0.4-0.6-0.7-1.1-1.3c2.6-3.1,0.6-6-1.5-9.1c2.3,0,3.9,0,5.4,0c0.9,5-0.5,9.7-2.4,15   c-3.3,3.9-8.5,3.4-12.9,1.7c-2.1-0.8-1.9-3.5-2.4-5.4c-0.5-1.5,0-3.3-0.1-5C237.1,439.6,236.8,437.6,236.6,435.2z"></path>
	<path d="M203.1,405.5c-1.5,1.5-2.8,2.9-3.1,5.3c-0.2,1.9-1.3,3.7-3,4.7c-1.4,0.8-3.4,1.8-4.8,1.4c-3.2-1-7.1-0.9-9.2-4.6   c0-1.2,0.2-2.8,0-4.2c-0.3-1.7,0.4-3.5,1.2-4.5c1.7-2.3,2-4.6,1.8-7.8c2.3,0.8,4.2,1.5,6.8,2.5c-1.7,1.3-2.8,2.2-4,3.1   c0.2,0.1,0.4,0.3,0.6,0.4c-0.7,1.6-1.4,3.1-2.4,5.6c0.2,1.2,0.6,3.3,0.9,5.1c2.9,2,5.4,2,7.7,0.4c1.1-2.2,2.2-4.3,3.5-7   c0-1.1,0-2.9,0-5.2c1.5,0.6,2.8,1.1,3.9,1.6C203.1,403.5,203.1,404.5,203.1,405.5z"></path>
	<path d="M160.1,383.5c1.7,0.8,2.8,1.4,4,2c-0.2,0.8-0.1,1.7-0.5,2.3c-1.4,2.2-2.4,4.7-3.7,7c-1,1.7-2.7,3-3.8,4.2   c-2.2,0-3.9,0-5.5,0c-2.7-2-6.8-2.4-7.3-7.7c1.2-3.6,2.7-8.4,4.2-13c1.6,0.6,3.5,1.3,5.4,2c0,0.7,0.1,1.3,0.1,1.9   c-1.4,1.2-3.3,2-3.9,3.4c-0.9,2.5-1,5.3-1.5,8.1c1.8,1.3,3.4,2.4,5.1,3.6C158.4,394.7,159.9,389.7,160.1,383.5z"></path>
	<path d="M151.4,411.5c0.9,0.3,1.7,0.6,2.5,0.9c-0.2,0.2-0.3,0.5-0.5,0.7c1.5,0,2.9,0,4.8,0c-0.6,1.5-1.1,2.8-1.8,4.4   c-1.1-0.6-2.3-0.9-3-1.6c-1.6-1.6-2.9-1.1-4.3,0.5c0,1,0,2.1,0,3.3c0.3,0.3,0.6,0.6,1.3,1.3c1.5-0.4,3.5,0.9,4.7-0.5   c0.7,0.3,1.5,0.7,2.3,1c0,0.3,0.1,0.6,0.1,1c-0.8,0.3-1.7,0.6-2.5,0.8c-4.7,1.2-8.4-1.8-12.2-4.7c4.2-4,6-8.7,6.2-14.3   c1.9-1.4,3.3,0.3,4.7,1c1.9,1,3.6,1.9,5.7,1.6c0.6,0.6,1.1,1.1,1.5,1.5c0,1,0,2,0,3.3c-0.7,0.1-1.5,0.2-2.1,0.2   c-1.3-1.5-2.4-2.9-3.7-4.4C153.9,409,152.9,410,151.4,411.5z"></path>
	<path d="M268.4,413.4c0,1.9,0,3.5,0,5.2c1,1.5,2,2.9,3.1,4.4c1.9,0,3.7,0,5.6,0c1.2-1.2,2.5-2.5,3.7-3.7c0.7,0.4,1.3,0.9,2.3,1.5   c-1.9,2-3.4,3.6-4.9,5.2c-9.4,0.7-9.1,0.6-12.2-3c-0.7-1.8-1.3-3-1.5-4.2c-0.2-1.3,0-2.7,0-4c2.7-6.6,8.5-7,14.7-6.8   c0.5,1.4,1.1,3,1.9,5.4c-1.8-0.5-2.9-0.6-3.8-1.1C273.2,410.4,272.8,410.4,268.4,413.4z"></path>
	<path d="M265.3,436.1c-0.9,0-1.4,0-2.4,0c-0.5,1-1.3,2.3-2,3.6c-0.4-0.2-0.8-0.4-1.2-0.6c-0.5-1.1-1.1-2.3-1.5-3.2   c3.6-4.1,7.9-2.4,11.8-2.9c0.5,0.5,1,1,1.4,1.4c-1.6,3.3-3.3,6.6-4.7,10c-0.6,1.5-0.6,3.3,1.2,4.5c1.7-1.2,3.5-2.5,5.2-3.7   c0.4,0.7,0.8,1.5,1.3,2.6c-1.3,1-2.9,2.1-4.3,3.2c-2.6,0.5-5.4-0.9-7.5,1.2c-2.6-2.2-2.6-2.2-1.6-4.3c1.2-2.5,2.1-5.2,3.6-7.5   C265.5,439.1,265.3,437.9,265.3,436.1z"></path>
	<path d="M284.1,406.2c2.5-1.5,4.6-2.8,6.3-3.9c2.6-0.5,4.6-0.9,6.9-1.3c0.7,1.3,1.6,2.7,2.4,4.3c-3.3,2.1-5.4-1.3-8-1.4   c-1.2,1.4-2.4,2.8-3.5,4.2c-0.2-0.2-0.5-0.4-0.7-0.7c0,1.7,0,3.3,0,5c2.3,2.5,4.5,5.2,8.8,4.5c1.3-1.5,2.7-3.2,4.3-5.2   c0.6,0.5,1.2,1,1.7,1.6c-1.2,3.2-3.4,5.2-6.8,6.7c-1.9,0-4.2,0-7,0c-1.4-1.8-2.9-3.9-4.5-5.9C281.9,411.5,285.4,409.3,284.1,406.2z   "></path>
	<path d="M213.6,429.1c1.2,1.2,2.4,2.4,3.5,3.5c-0.4,0.9-0.9,1.7-1.3,2.5c-0.6,0-1.3,0-2.1,0c-0.3-0.6-0.5-1.4-1-1.9   c-1.5-1.6-3.9-1.5-4.4,0.4c-0.5,2.3-1.6,4.4-2.1,6.6c-0.3,1.4,0.5,3,0.8,4.6c-0.4,0.4-0.9,0.9-1.2,1.2c-2-0.8-3.8-1.5-5.8-2.3   c-0.5-2.6,2.6-3.9,2.9-6.1c0.3-2.3,1.9-4,2.2-6c-0.5-1.7-1.4-2.7-3.5-2.4c-0.7,0.6-1.6,1.4-2.4,2.1c-1.7-0.5-1.5-2.7,0.5-5.4   c2.4,0.6,5.1,0.9,7.4,2C209.3,428.8,211.4,429.2,213.6,429.1z"></path>
	<path d="M183.7,394.1c-0.8,1.7-1.4,2.9-2.3,4.6c-1.2-1.6-2-2.7-2.8-3.8c-1.1,0-2.1,0-3.1,0c-1.4,2.9-2.9,5.8-4.4,8.8   c0.3,1.1,0.7,2.4,1.3,4.3c-1.4-0.2-2.6,0.1-3.1-0.4c-1.2-1.3-2.6-1.7-4.2-1.8c0-0.9,0-1.6,0-2.3c4.5-2,4.1-7.3,7-10.3   c0-0.4,0.1-0.6,0-0.7c-0.5-0.6-1-1.2-1.5-1.7c-0.8,0.1-1.5,0-2.1,0.2c-0.6,0.2-1,0.7-1.5,1.1c-0.7-0.6-1.1-1.1-1.7-1.6   c0.4-0.9,0.9-1.8,1.2-2.4c0.8-0.4,1.4-0.6,2.2-1c-0.1,0,0.2,0,0.4,0.1c0.9,0.6,1.9,1.2,2.8,1.8c1.5,1,2.9,1.6,4.7,1.9   C178.6,391.5,180.7,392.8,183.7,394.1z"></path>
	<path d="M344.4,391.8c1.7,0.8,3.3,1.6,5.3,2.5c1.1-1,2.2-2,3.4-3.1c-0.6-0.7-1-1.4-1.6-2.1c-2.4,0-4.9,0-6.6,0   c-1.3-0.6-2-1-3.1-1.5c-0.4-1.4-0.9-3.2-1.4-5.1c1.8-1.3,3.3-2.4,4.6-3.3c2.4,0,4.5,0,6.7,0c0,0.9,0,1.7,0,3   c-1.8-0.4-3.4-0.8-5.5-1.3c-0.5,1-1.2,2.1-1.8,3.3c-0.1-0.1,0.4,0.4,0.9,0.9c3.8-0.2,7.8-0.3,10.5,3.6c0,1.5,0,3.1,0,4.8   c-2.6,2.6-4.3,3.4-8.5,3.6c-1.2-1.4-3-2.5-3.7-4.4C343.8,392.3,344.1,392.1,344.4,391.8z"></path>
	<path d="M236.2,427.1c0-1.5,0-2.6,0-3.8c-2.3-1.5-4.5-3-6.8-4.5c0-1.5,0-3,0-4.4c1.1-1.1,2.2-2.2,3.2-3.2c5.5-0.3,6.1,0.1,8.8,4.5   c-0.5,0.4-1.2,0.8-1.9,1.3c0,0-0.2,0.1-0.3,0c-1.2-1-2.5-2-3.9-3.3c-0.9,0.4-1.9,0.9-2.9,1.3c0.5,1,0.9,1.8,0.9,1.9   c2.8,2.1,5.1,3.8,7.2,5.3c-0.5,4.5-2.9,6.7-6.7,7.9c-1.5-0.7-3.2-1.5-5-2.4c-0.5-1.4-2.2-2.8-0.8-5c2.2,1.1,3.3,3,5,4.3   C233.8,427.1,234.8,427.1,236.2,427.1z"></path>
	<path d="M192.9,422.9c-3.5,0.8-3.5,0.8-3.8,3.3c1.9,2.4,3.6,4.6,5,6.5c-0.1,3.2-1.8,4.7-3.5,6.4c-1.5,0-3.2,0-5.2,0   c-1.2-0.9-2.8-2-4.3-3c-0.3-2-0.6-3.8,1.6-5c1.1,2,2.3,4,3.4,6c3.2-0.3,3.2-0.3,3.8-3.1c-2.1-2.4-4.2-4.9-6.1-7.1   c0.9-3.6,2.7-5.7,6.7-5.8C191.1,421.4,191.9,422,192.9,422.9z"></path>
	<path d="M277.1,434.8c-1.2-1-2-1.8-3.5-3.1c2.9-0.8,5.1-1.4,7.4-2c1.2,5.8,1.4,11.6,5.7,16.4c-2.3,0.8-4.5,1.6-7.2,2.5   C279.8,443.5,279.1,439,277.1,434.8z"></path>
	<path d="M171,431.8c0-0.8-0.2-1.6,0-1.8c2.5-2.4,2.7-5.9,4.3-8.7c1-1.8,1-3.3-0.5-5c3.1-0.6,5.4,0.1,7.5,2.8c-3.5,3-5,7.1-6.3,11.3   c-0.3,1,0.3,2.3,0.6,3.7c-0.2,0.2-0.5,0.5-1,1C174.2,433.9,172.7,432.9,171,431.8z"></path>
	<path d="M192.1,423.1c0.7,0,1.3,0,2.5,0c0.9,1.3,3.4,2,2.2,4.9c-0.7,0-1.5,0-2.3,0C193.7,426.4,192.9,424.7,192.1,423.1z"></path>
	<path d="M312,351.2c0.5-0.9,0.9-1.7,1.4-2.8c-2.2-3.5-2.5-9.1-7.9-11.3c1.5-2,2.3-2.3,5.3-2.4c2.7,7.5,5.3,15,8.1,22.7   c-1.8,0.3-3,0.6-4.7-0.4c-2.7-1.7-6-2.6-8.6-4.6c-1.2-0.9-2.9-1-4.3-1.6c-1.1-0.5-2.2-1.1-3.6-1.8c-0.7,0-1.8,0-3.1,0   c0.1,0.6-0.1,1.2,0.2,1.5c1.5,1.5,2.3,3.2,2.9,5.4c1,4,2.6,5.7,6.2,7.7c-2.4,1.3-4.5,2.4-7.1,3.9c-0.4-4-0.1-7.6-2.1-11.1   c-1.7-3-2.5-6.6-3.5-9.7c-1.9-0.8-3.3-1.4-5-2.1c3.8-3,5.9-3,10.6-1.2c2.6,1,4.5,3.2,7.5,3.7C307,347.5,309.3,349.5,312,351.2z"></path>
	<path d="M203.1,351.6c-1.9,4.8-3.7,8.9-8.5,10.2c-2.2,0-4.3,0.1-6.5,0c-5.9-0.4-9.8-2.6-12.1-9c-1.7-4.7-0.6-8.9,2.9-12.4   c1.7-1.7,3.6-3.2,5.2-4.7c4.1,0.3,7.9-0.7,11.4,1.1c2.2,1.1,5.3,4.5,6.5,6.7C203.7,346.1,203,349.1,203.1,351.6z M184.1,340.1   c0,2.2-2.3,2.7-2.9,4.3c-1.7,3.7-1.4,7.4,0.6,11.7c1.2,0.9,2.9,2.3,4.2,3.4c5.2,1.3,8.1-1.5,10.4-4.6c2.5-3.5,3.2-7.6,1.5-11.9   c-1-1-1.9-2.3-3.1-3c-1.5-1-3.3-1.6-5.2-2.4C187.8,338.3,186.2,339.1,184.1,340.1z"></path>
	<path d="M332.6,323.8c11.9-1.2,14.1,2.5,16.1,6.8c0,3.3,0.1,6.9-2.4,10.2c-2.2,2.9-5.3,4.1-8.4,6c-1.5,0-3.3,0.1-5.1,0   c-1.5-0.2-3.1-0.7-4.8-1.2c-5.2-4.4-7.3-8.8-6.3-15.3c1.4-1.9,3.2-3.4,4.5-5.4c1.8-2.7,4.9-3.9,8.2-4.2   C336.3,320.5,338.3,320.6,332.6,323.8c-7.3,5.1-8.2,7.4-7.7,9.4c0.4,2,2,3.9,3.4,5.5c1.5,1.6,3.4,2.8,4.8,4c3,0,5.5,0,8.1,0   c1.1-1.1,2.2-2.4,3.3-3.6c0.7-1.5-0.8-3.6,0.7-4.6c-0.3-5.5-5-7.1-8.2-9.9C333,324.6,329,324.2,332.6,323.8z"></path>
	<path d="M145.9,335.8c0-2.3,0-4.8,0-7.9c1.4-1.6,3-3.7,4.8-5.5c1.9-1.9,4.5-3.2,7-3.6c2.4-0.4,5,0.5,7.3,0.8c3,3,5.8,5.8,9.2,9.2   c0.8,2-2.6,2.7-2.4,5.7c-1.4-1.1-2.1-1.7-2.9-2.4c0.4-0.9,0.9-1.7,1.3-2.6c-0.2-3.1-2.6-4.8-4.5-6.8c-2.6,0-5.3,0-8,0   c-4.8,3.2-8.6,7-7.6,13.6c1.1,1.5,2.2,3,3,4c2.2,0.6,3.7,1.1,5.3,1.5c1.1-1.3,2.1-2.6,3.6-4.5c-0.1-0.2-0.3-1.4-0.7-2.6   c0.6,0,1.3-0.1,1.9-0.1c1.5,1.2,3,2.4,4.8,3.9c0,0.1,0,0.8,0.1,1.3c-1.9,1.6-3.7,3.1-6,5C156,344,149.8,342.8,145.9,335.8z"></path>
	<path d="M222.2,350.2c0-0.8-0.1-1.4-0.1-2.2c-2.1,0-4,0-6.4,0c-0.8,0.4-2,1.1-3.5,1.9c-0.5-1.2-0.9-2.3-1.3-3.3   c0.8-0.8,1.2-1.2,1.8-1.8c2.1,0,4.7-0.7,6.3,0.2c1.9,1.1,4.1,0.1,5.9,1.7c0.7,0.7,2.6,0.1,4.1,0.1c0.8,2.2-0.5,3.5-1.9,5.1   c-2.4,2.7-5.1,5.1-6.9,8.3c-1.4,2.4-4.7,3.2-5.5,6.6c0.4,0.3,1.3,1,2.9,2.2c2.2-0.6,5.3-1.4,8.6-2.2c0,1.2,0,2,0,2.7   c-2,2.5-4.7,2.7-7.3,2.4c-3.5-2.6-7.6-2.1-11.4-3.2c-0.7-1.4-0.4-2.8,0.9-3.4c2.4-1.1,3.8-3.1,5.3-5.2   C216.1,356.6,219.2,353.6,222.2,350.2z"></path>
	<path d="M269.3,347.7c2.8,0.8,3.7,3.7,5,5.6c2.6,3.9,5.2,7.9,7.8,11.8c0.6,0.9,1.2,1.5,2.1,2.1c1,0.6,1.7,1.8,3.1,3.4   c-3.7,0.4-6.6,0.1-9.4,0.3c-0.5-2.4-1-4.7-1.5-7c-3,0-5.6,0-8.7,0c-0.5,0.7-1.2,1.6-2.3,2.9c0,0.8,0,2.2,0,3.7   c0.6,0.3,1.2,0.5,2.1,0.8c-0.5,0.8-0.9,1.6-1.3,2.4c-1.9,0-3.7,0-5.6,0c-1.4-2.8,1.7-4.5,1.9-7c0.1-2.2,1.6-4.3,2.8-7   c0.1-0.7-0.4-2.7,0.4-3.6C267.9,353.7,266.6,349.9,269.3,347.7z M268.8,361.6c1.6-0.7,3.1-1.3,4.8-2c-1.7-2.3-2.3-5.5-6.5-4.6   C268.1,357.2,266.1,359.6,268.8,361.6z"></path>
	<path d="M241.3,370.4c0.4,0.1,0.8,0.2,1.2,0.4c0.4,0.2,0.8,0.5,0.6,0.4c3.9,0.4,6.7-2.3,10.6-2.4c-0.6,1.4-1,2.4-1.6,3.6   c-1.5,1.1-3.4,1.5-5.6,1.5c-4-0.1-8,0-12.1,0c0-1.3,0-2.4,0-3.1c4.5-5.1,6.7-11.3,10.8-16.5c0-1,0-2.1,0-3.3c-1.8,0-3.4,0-5.4,0   c-0.7,0.9-1.6,2-2.3,2.9c-1.3,0-2,0-3,0c-0.1-1-0.2-2.1-0.4-3.5c1-0.6,2.1-1.4,3.3-2.2c4.5,0.3,9.5,0.7,14.6,1.1   c0.6,1.2,0.4,2.3-0.8,3.3c-0.3,0.2-0.5,0.4-0.7,0.7c-3.1,5.3-6,10.6-9.3,15.7C241.1,369.1,241.3,369.7,241.3,370.4z"></path>
	<path d="M14.3,185.4c2.3-1.1,4.1,0.2,5.5,1.6c2.7,2.9,5.2,6.1,7.6,9c-0.3,4.8,1.6,8.8,4.2,12.1c2.5,3.1,5.9,5.4,8.9,8   c1.2,1.1,2.7,1.9,3.6,3.2c2.9,3.9,5.7,7.8,9.5,11.4c-0.1,0.7-0.1,1.6-0.2,3c-0.9-0.6-1.6-0.8-2-1.2c-4.4-4.1-8.3-8.7-11.9-13.6   c-0.6-0.8-1.7-1.3-2.6-1.9c-0.9-0.6-1.9-1.2-2.7-1.9c-4.1-3.8-7.5-8-8.9-13.7c-1.2-5-3.1-9.9-8.4-12.5   C15.8,188.4,14.3,187.4,14.3,185.4z"></path>
	<ellipse cx="414.5" cy="46" rx="0.7" ry="0.2"></ellipse>
	<path d="M456.1,363.6c1.5-0.7,2.1-1,3.6-1.7c1.5,0,4.3,0,7.3,0c0.1,0.4,0.1,1,0.2,1.7C463.8,363.6,460.5,363.6,456.1,363.6z"></path>
	<path d="M49.7,327.8c2.2,0,4.5,0,6.7,0C54.2,329,51.9,328.5,49.7,327.8z"></path>
	<path d="M446.1,327.8c-0.9,1.9-2.2,2.2-3.9,1.6c0-0.6,0-1,0-1.6C443.5,327.8,444.7,327.8,446.1,327.8z"></path>
</g>
</svg>